<?xml version="1.0" encoding="utf-8"?>
<!-- Generator: Adobe Illustrator 18.0.0, SVG Export Plug-In . SVG Version: 6.00 Build 0)  -->
<!DOCTYPE svg PUBLIC "-//W3C//DTD SVG 1.1//EN" "http://www.w3.org/Graphics/SVG/1.1/DTD/svg11.dtd">
<svg version="1.1" id="Layer_1" xmlns="http://www.w3.org/2000/svg" xmlns:xlink="http://www.w3.org/1999/xlink" x="0px" y="0px"
	 viewBox="65 79 368 121" enable-background="new 65 79 368 121" xml:space="preserve">
<g id="Services">
	<g>
		<g>
			<g>
				<path fill="#FFFFFF" d="M111.3,113.1c0.5,0.3,0.9,0.6,1.1,0.8c0.9,0.9,1.4,2.1,1.4,3.3c0,1.3-0.5,2.4-1.4,3.3
					c-0.5,0.5-1.1,0.9-1.8,1.1v13.4c0,0.4-0.1,0.8-0.5,1.1c-0.3,0.3-0.7,0.4-1.1,0.4s-0.8-0.2-1.1-0.5s-0.5-0.7-0.4-1.1v-13.4
					c-0.7-0.2-1.3-0.6-1.8-1.1c-0.9-0.9-1.4-2.1-1.4-3.3c0-1.3,0.5-2.4,1.4-3.4c0.3-0.3,0.7-0.6,1.1-0.8v4.1l2.3,2.3l2.2-2.2V113.1z
					"/>
				<g>
					<path fill="#FFFFFF" d="M116.8,117.2v-0.8c0,0,0-0.2,0.3-0.2l0.2-7l0.3-0.1l0.2-1.9v28.1c0,0-0.7,0-0.7-0.3l-0.2-1.8l-0.4-0.3
						l-0.3-12.8c0,0,0.2-0.3-0.2-0.6v-1.5c0,0,0.1-0.3,0.3-0.3"/>
					<path fill="#FFFFFF" d="M118.8,117.3v-0.8c0,0,0-0.2-0.3-0.2l-0.2-7l-0.3-0.1l-0.2-1.9v27.9c0,0,0.8,0.1,0.8-0.1l0.2-1.8
						l0.4-0.3l0.3-12.8c0,0-0.2-0.3,0.2-0.6v-1.5c0,0-0.1-0.2-0.3-0.2"/>
					<rect x="117.3" y="110.4" fill="#FFFFFF" width="1" height="24.6"/>
					<path fill="none" stroke="#FFFFFF" stroke-width="1.7894" stroke-miterlimit="10" d="M117.8,134.9c-0.7,11.8,8.4,5.8,2.5,15.1"
						/>
				</g>
			</g>
			<path fill="#FFFFFF" d="M80,122.6l-0.1,2.3c-0.1,0.6-0.5,1.2-1.1,1.3c-2.1,0.7-4.2,1.5-6.3,2.4c-0.6,0.3-1,0.9-0.9,1.6
				c0.1,0.9,0.3,1.8,0.4,2.7c0.1,0.6,0.6,1.1,1.2,1.3c2.3,0.6,4.6,0.9,6.9,1.1c0.6,0.1,1.1,0.4,1.3,1c0.3,0.8,0.6,1.6,0.8,2.4
				c0.3,0.8,0.6,1.5,1,2.3c0.3,0.6,0.1,1.2-0.3,1.6c-1.6,1.6-3.1,3.3-4.5,5.1c-0.4,0.6-0.4,1.3-0.1,1.9c0.5,0.7,1,1.4,1.6,2.2
				c0.4,0.5,1,0.7,1.6,0.6c2.3-0.6,4.6-1.4,6.7-2.2c0.6-0.2,1.1-0.1,1.6,0.3c0.6,0.6,1.2,1.1,1.8,1.7c0.1,0.1,0.1,0.1,0.1,0.1
				c0.6,0.5,1.2,0.9,1.8,1.4c0.5,0.4,0.7,1.1,0.5,1.6c-0.6,2.1-1.2,4.3-1.6,6.6c-0.1,0.7,0.2,1.3,0.8,1.7c0.8,0.4,1.6,0.8,2.4,1.3
				c0.6,0.3,1.3,0.2,1.7-0.2c1.8-1.6,3.4-3.3,4.9-5.1c0.4-0.4,0.9-0.6,1.5-0.5c0.8,0.3,1.6,0.4,2.4,0.7c0.8,0.2,1.6,0.3,2.3,0.4
				c0.6,0.1,1.1,0.6,1.3,1.3c0.4,2.2,0.9,4.3,1.6,6.6c0.2,0.6,0.8,1.1,1.4,1.1c0.9,0.1,1.8,0,2.8,0c0.6,0,1.2-0.4,1.4-1
				c0.8-2.2,1.4-4.5,1.9-6.8c0.1-0.6,0.6-1,1.1-1.1c0.8-0.1,1.6-0.4,2.4-0.6c0.8-0.2,1.6-0.4,2.3-0.7c0.6-0.2,1.3,0,1.6,0.5
				c1.4,1.8,2.9,3.4,4.5,5.1c0.4,0.4,1.1,0.6,1.7,0.3c0.9-0.4,1.7-0.9,2.5-1.3c0.6-0.3,0.9-0.9,0.8-1.6c-0.3-2.3-0.8-4.6-1.4-6.9
				c-0.2-0.6,0-1.2,0.5-1.5c0.7-0.5,1.3-1.1,1.9-1.6c0.6-0.5,1.2-1.1,1.7-1.6c0.4-0.5,1.1-0.6,1.8-0.3c2.1,0.9,4.2,1.8,6.3,2.4
				c0.6,0.2,1.3,0,1.6-0.5c0.6-0.8,1.1-1.5,1.6-2.3c0.3-0.6,0.3-1.3-0.1-1.8c-1.3-1.9-2.9-3.8-4.4-5.4c-0.4-0.4-0.5-1-0.3-1.6
				c0.4-0.8,0.6-1.6,0.9-2.3s0.6-1.5,0.8-2.3c0.2-0.6,0.7-1,1.3-1.1c2.3-0.1,4.5-0.4,6.8-0.8c0.6-0.1,1.1-0.6,1.2-1.2
				c0.2-0.9,0.3-1.8,0.3-2.8c0.1-0.6-0.3-1.3-0.9-1.5c-2.1-1.1-4.3-2-6.4-2.8c-0.6-0.2-0.9-0.7-1-1.3c0-0.8-0.1-1.6-0.3-2.4
				c-0.1-0.8-0.2-1.6-0.4-2.4c-0.1-0.6,0.2-1.2,0.7-1.5c1.9-1.2,3.8-2.4,5.6-3.8c0.6-0.4,0.7-1.1,0.5-1.8c-0.3-0.9-0.6-1.8-0.9-2.6
				c-0.3-0.6-0.8-0.9-1.4-0.9c-2.4,0-4.7,0.2-7,0.6c-0.6,0.1-1.2-0.2-1.5-0.7c-0.4-0.7-0.8-1.4-1.3-2.1c-0.5-0.7-0.9-1.3-1.4-1.9
				c-0.4-0.5-0.4-1.1-0.1-1.6c1.1-1.9,2.2-3.9,3.1-5.9c0.3-0.6,0.1-1.3-0.4-1.8c-0.7-0.6-1.3-1.3-2.1-1.8c-0.5-0.4-1.2-0.4-1.8-0.2
				c-2.1,1.1-4.1,2.4-6,3.8c-0.5,0.4-1.1,0.4-1.6,0.1c-0.7-0.4-1.4-0.9-2.1-1.2c-0.8-0.4-1.4-0.7-2.2-1.1c-0.6-0.3-0.9-0.8-0.9-1.4
				c0.1-2.2,0.1-4.5,0-6.7c-0.1-0.7-0.5-1.3-1.2-1.4c-0.9-0.2-1.7-0.5-2.6-0.7c-0.6-0.1-1.3,0.1-1.6,0.7c-1.3,2-2.5,3.9-3.6,6.1
				c-0.3,0.6-0.9,0.9-1.5,0.9c-0.8-0.1-1.6-0.1-2.4-0.1c-0.8,0.1-1.6,0.1-2.4,0.1c-0.6,0.1-1.2-0.3-1.4-0.9c-0.9-2-1.9-4-3.1-6
				c-0.3-0.6-1-0.8-1.6-0.7c-0.9,0.2-1.8,0.4-2.8,0.7c-0.6,0.2-1,0.7-1.1,1.3c-0.3,2.4-0.4,4.8-0.3,7c0,0.6-0.3,1.2-0.9,1.4
				c-0.7,0.3-1.4,0.6-2.1,1c-0.1,0-0.1,0.1-0.1,0.1c-0.7,0.4-1.4,0.8-2.1,1.2c-0.5,0.3-1.2,0.2-1.6-0.1c-1.8-1.4-3.6-2.6-5.6-3.9
				c-0.6-0.3-1.3-0.3-1.8,0.1c-0.7,0.6-1.4,1.2-2.1,1.8c-0.5,0.4-0.6,1.1-0.4,1.8c0.9,2.2,1.9,4.3,3,6.3c0.3,0.6,0.3,1.2-0.1,1.7
				c-0.5,0.6-1,1.3-1.4,1.9c-0.4,0.7-0.9,1.4-1.3,2.1c-0.3,0.6-0.9,0.8-1.6,0.7c-2.2-0.4-4.4-0.6-6.7-0.8c-0.6-0.1-1.3,0.3-1.5,0.9
				c-0.3,0.9-0.7,1.8-1,2.6c-0.2,0.6,0,1.3,0.4,1.6c1.8,1.6,3.7,3,5.6,4.3c0.5,0.3,0.8,0.9,0.7,1.5l-0.4,2.4
				C80,122.6,80,122.6,80,122.6z M93.3,116.1c1.7-3.4,4.3-6.2,7.3-8.4c3.1-2.2,6.6-3.6,10.4-4.1c3.8-0.6,7.6,0,11.1,1.3
				c3.6,1.3,6.7,3.4,9.3,6.3c2.6,2.8,4.3,6.2,5.3,9.8s1,7.5,0.1,11.1s-2.6,7.1-5.1,9.9c-2.4,2.8-5.6,5.1-9.1,6.4
				c-3.4,1.3-7.3,1.9-11.1,1.5c-3.7-0.4-7.3-1.8-10.4-3.8c-3.1-2.1-5.8-4.9-7.5-8.3s-2.7-7-2.8-10.8
				C90.8,123.2,91.6,119.5,93.3,116.1z"/>
			<g enable-background="new    ">
				<path fill="#FFFFFF" d="M97,188.4h2l2.8,8.4l2.8-8.4h2v10h-1.1v-8.8h-0.2l-2.9,8.4h-1.3l-2.9-8.4h-0.2v8.8H97V188.4L97,188.4z"
					/>
				<path fill="#FFFFFF" d="M110.9,188.4h2.4l2.8,10H115l-0.7-2.6H110l-0.7,2.6h-1.1L110.9,188.4z M110.3,194.8h3.8l-1.5-5.4h-0.8
					L110.3,194.8z"/>
				<path fill="#FFFFFF" d="M120.4,193.9l-1.6,0.1v4.4h-1.1v-10h1.1v4.6l1.6-0.1l2.6-4.6h1.3l-2.9,5l3,4.9H123L120.4,193.9z"/>
				<path fill="#FFFFFF" d="M125.9,188.4h6.1v1H127v3.4h4.1v0.9h-4.1v3.6h4.9v1h-6.1L125.9,188.4L125.9,188.4z"/>
			</g>
		</g>
		<g>
			<path fill="#FFFFFF" d="M215.7,122.8l-0.1,2.3c-0.1,0.6-0.5,1.2-1.1,1.3c-2.1,0.7-4.2,1.5-6.3,2.4c-0.6,0.3-1,0.9-0.9,1.6
				c0.1,0.9,0.3,1.8,0.4,2.7c0.1,0.6,0.6,1.1,1.2,1.3c2.3,0.6,4.6,0.9,6.9,1.1c0.6,0.1,1.1,0.4,1.3,1c0.3,0.8,0.6,1.6,0.8,2.4
				c0.3,0.7,0.6,1.5,1,2.3c0.3,0.6,0.1,1.2-0.3,1.6c-1.6,1.6-3.1,3.3-4.5,5.1c-0.4,0.6-0.4,1.3-0.1,1.9c0.5,0.8,1,1.4,1.6,2.2
				c0.4,0.5,1,0.8,1.6,0.6c2.3-0.6,4.6-1.4,6.7-2.2c0.6-0.3,1.1-0.1,1.6,0.3c0.6,0.6,1.2,1.1,1.8,1.7c0.1,0.1,0.1,0.1,0.1,0.1
				c0.6,0.5,1.2,0.9,1.8,1.4c0.5,0.4,0.7,1.1,0.5,1.6c-0.6,2.1-1.2,4.3-1.6,6.6c-0.1,0.7,0.2,1.3,0.8,1.7c0.8,0.4,1.6,0.8,2.4,1.3
				c0.6,0.3,1.3,0.2,1.7-0.3c1.8-1.6,3.4-3.3,4.9-5.1c0.4-0.4,0.9-0.6,1.5-0.5c0.8,0.2,1.6,0.4,2.4,0.7c0.8,0.2,1.6,0.3,2.3,0.4
				c0.6,0.1,1.1,0.6,1.3,1.3c0.4,2.2,0.9,4.3,1.6,6.6c0.2,0.6,0.8,1.1,1.4,1.1c0.9,0.1,1.8,0,2.7,0c0.6,0,1.2-0.4,1.4-1
				c0.8-2.2,1.4-4.5,1.9-6.7c0.1-0.6,0.6-1,1.1-1.1c0.8-0.1,1.6-0.4,2.4-0.6s1.6-0.4,2.3-0.7c0.6-0.2,1.3,0,1.6,0.5
				c1.4,1.8,2.9,3.4,4.5,5.1c0.4,0.4,1.1,0.6,1.7,0.3c0.9-0.4,1.7-0.9,2.5-1.3c0.6-0.3,0.9-0.9,0.8-1.6c-0.3-2.3-0.8-4.6-1.4-6.9
				c-0.2-0.6,0-1.2,0.5-1.5c0.7-0.5,1.3-1.1,1.9-1.6c0.6-0.5,1.2-1.1,1.7-1.6c0.4-0.5,1.1-0.6,1.7-0.3c2.1,0.9,4.2,1.8,6.3,2.4
				c0.6,0.2,1.3,0,1.6-0.5c0.6-0.8,1.1-1.5,1.6-2.3c0.3-0.6,0.3-1.3-0.1-1.8c-1.3-1.9-2.9-3.8-4.4-5.4c-0.4-0.4-0.5-1-0.3-1.6
				c0.4-0.8,0.6-1.6,0.9-2.3s0.6-1.5,0.8-2.3c0.2-0.6,0.7-1,1.3-1.1c2.3-0.1,4.5-0.4,6.8-0.8c0.6-0.1,1.1-0.6,1.2-1.2
				c0.2-0.9,0.3-1.8,0.3-2.8c0.1-0.6-0.3-1.3-0.9-1.5c-2.1-1.1-4.3-2-6.4-2.8c-0.6-0.2-0.9-0.7-1-1.3c0-0.8-0.1-1.6-0.3-2.4
				c-0.1-0.8-0.2-1.6-0.4-2.4c-0.1-0.6,0.2-1.2,0.7-1.5c1.9-1.2,3.8-2.4,5.6-3.8c0.6-0.4,0.7-1.1,0.5-1.8c-0.3-0.9-0.6-1.8-0.9-2.6
				c-0.2-0.6-0.8-0.9-1.4-0.9c-2.4,0-4.7,0.2-7,0.6c-0.6,0.1-1.2-0.2-1.5-0.7c-0.4-0.7-0.8-1.4-1.3-2.1c-0.5-0.7-0.9-1.3-1.4-1.9
				c-0.4-0.5-0.4-1.1-0.1-1.6c1.1-1.9,2.2-3.9,3.1-5.9c0.3-0.6,0.1-1.3-0.4-1.8c-0.7-0.6-1.3-1.3-2.1-1.8c-0.5-0.4-1.2-0.4-1.8-0.2
				c-2.1,1.1-4.1,2.4-6,3.8c-0.5,0.4-1.1,0.4-1.6,0.1c-0.7-0.4-1.4-0.9-2.1-1.2c-0.8-0.4-1.4-0.8-2.2-1.1c-0.6-0.3-0.9-0.8-0.9-1.4
				c0.1-2.2,0.1-4.5,0-6.7c-0.1-0.7-0.5-1.3-1.2-1.4c-0.9-0.3-1.7-0.5-2.6-0.7c-0.6-0.1-1.3,0.1-1.6,0.7c-1.3,2-2.5,3.9-3.6,6.1
				c-0.3,0.6-0.9,0.9-1.5,0.9c-0.8-0.1-1.6-0.1-2.4-0.1c-0.8,0.1-1.6,0.1-2.4,0.1c-0.6,0.1-1.2-0.3-1.4-0.9c-0.9-2-1.9-4-3.1-6
				c-0.3-0.6-1-0.8-1.6-0.7c-0.9,0.2-1.8,0.4-2.8,0.7c-0.6,0.2-1,0.7-1.1,1.3c-0.2,2.4-0.4,4.8-0.3,7c0,0.6-0.3,1.2-0.9,1.4
				c-0.7,0.3-1.4,0.6-2.1,1c-0.1,0-0.1,0.1-0.1,0.1c-0.7,0.4-1.4,0.8-2.1,1.2c-0.5,0.3-1.2,0.3-1.6-0.1c-1.8-1.4-3.6-2.6-5.6-3.9
				c-0.6-0.3-1.3-0.3-1.8,0.1c-0.7,0.6-1.4,1.2-2.1,1.8c-0.5,0.4-0.6,1.1-0.4,1.8c0.9,2.2,1.9,4.3,3,6.3c0.3,0.6,0.3,1.2-0.1,1.7
				c-0.5,0.6-1,1.3-1.4,1.9c-0.4,0.7-0.9,1.4-1.3,2.1c-0.3,0.6-0.9,0.8-1.6,0.7c-2.2-0.4-4.4-0.6-6.7-0.8c-0.6-0.1-1.3,0.3-1.5,0.9
				c-0.3,0.9-0.7,1.8-1,2.6c-0.2,0.6,0,1.3,0.4,1.6c1.8,1.6,3.7,3,5.6,4.3c0.5,0.3,0.8,0.9,0.7,1.5l-0.4,2.4
				C215.8,122.7,215.8,122.7,215.7,122.8z M229.1,116.3c1.7-3.4,4.3-6.2,7.3-8.4c3.1-2.2,6.6-3.6,10.4-4.1c3.8-0.6,7.6,0,11.1,1.3
				c3.6,1.3,6.7,3.4,9.2,6.3c2.6,2.8,4.3,6.2,5.3,9.8s1,7.5,0.1,11.1c-0.9,3.6-2.6,7.1-5.1,9.9c-2.4,2.8-5.6,5.1-9.1,6.4
				c-3.4,1.3-7.3,1.9-11.1,1.5c-3.7-0.4-7.3-1.8-10.4-3.8c-3.1-2.1-5.8-4.9-7.5-8.2c-1.8-3.3-2.7-7-2.8-10.8
				C226.4,123.3,227.4,119.6,229.1,116.3z"/>
			<g>
				<path fill="#FFFFFF" d="M235.2,119.8V134h29.4v-14.3H235.2z M251.4,122.6h3.7v2.7h-3.7V122.6z M253.3,126.4v2.2h-4.1v-2.2H253.3
					z M246.5,122.6h4.1v2.7h-4.1V122.6z M241.7,122.6h4.1v2.7h-4.1V122.6z M236.8,122.6h4.1v2.7h-4.1V122.6z M236.8,126.4h12.1v2.2
					h-12.1V126.4z M241.1,132.1h-4v-2.4h4V132.1z M254.1,132.1h-12.4v-2.4h12.4V132.1z M254.1,126.4h4.1v2.2h-4.1V126.4z
					 M262.8,132.1h-7.9v-2.4h7.9V132.1z M262.8,128.6h-4.1v-2.2h4.1V128.6z M262.8,125.3h-6.8v-2.7h6.8V125.3z"/>
				<path fill="none" stroke="#FFFFFF" stroke-width="1.7894" stroke-miterlimit="10" d="M259.8,120.2c3.3-8.1-18-8.9-11.2-19.3"/>
				<rect x="258.7" y="119.4" fill="#FFFFFF" width="2.4" height="0.8"/>
			</g>
			<g enable-background="new    ">
				<path fill="#FFFFFF" d="M239.6,198.2c-0.7,0.1-1.8,0.3-2.8,0.3c-3,0-3.6-1.8-3.6-5.1c0-3.4,0.6-5.2,3.6-5.2c1,0,2.1,0.2,2.8,0.3
					l-0.1,0.9c-0.6-0.1-1.8-0.3-2.6-0.3c-2.2,0-2.6,1.3-2.6,4.2c0,2.8,0.4,4.1,2.6,4.1c0.8,0,1.9-0.1,2.6-0.2L239.6,198.2z"/>
			</g>
			<g enable-background="new    ">
				<path fill="#FFFFFF" d="M240.9,193.4c0-3.3,0.9-5.2,3.9-5.2c3.1,0,3.9,1.9,3.9,5.2c0,3.4-0.9,5.1-3.9,5.1
					C241.8,198.5,240.9,196.8,240.9,193.4z M247.6,193.4c0-2.7-0.5-4.2-2.8-4.2c-2.3,0-2.8,1.5-2.8,4.2c0,2.8,0.5,4.1,2.8,4.1
					C247.1,197.5,247.6,196.3,247.6,193.4z"/>
				<path fill="#FFFFFF" d="M250.8,198.4v-10h3.6c2.9,0,3.7,2,3.7,4.8c0,2.9-0.8,5.1-3.7,5.1L250.8,198.4L250.8,198.4z M254.4,189.4
					h-2.4v8h2.4c2.1,0,2.6-2,2.6-4.1C256.9,191.1,256.4,189.4,254.4,189.4z"/>
				<path fill="#FFFFFF" d="M260.1,188.4h6.1v1h-4.9v3.4h4.1v0.9h-4.1v3.6h4.9v1h-6.1V188.4z"/>
			</g>
		</g>
		<g>
			<path fill="#FFFFFF" d="M351.4,122.8l-0.1,2.3c-0.1,0.6-0.5,1.2-1.1,1.3c-2.1,0.7-4.2,1.5-6.3,2.4c-0.6,0.3-1,0.9-0.9,1.6
				c0.1,0.9,0.3,1.8,0.4,2.7c0.1,0.6,0.6,1.1,1.2,1.3c2.3,0.6,4.6,0.9,6.9,1.1c0.6,0.1,1.1,0.4,1.3,1c0.3,0.8,0.6,1.6,0.8,2.4
				c0.3,0.7,0.6,1.5,1,2.3c0.3,0.6,0.1,1.2-0.3,1.6c-1.6,1.6-3.1,3.3-4.5,5.1c-0.4,0.6-0.4,1.3-0.1,1.9c0.5,0.8,1,1.4,1.6,2.2
				c0.4,0.5,1,0.8,1.6,0.6c2.3-0.6,4.6-1.4,6.7-2.2c0.6-0.3,1.1-0.1,1.6,0.3c0.6,0.6,1.2,1.1,1.8,1.7c0.1,0.1,0.1,0.1,0.1,0.1
				c0.6,0.5,1.2,0.9,1.8,1.4c0.5,0.4,0.7,1.1,0.5,1.6c-0.6,2.1-1.2,4.3-1.6,6.6c-0.1,0.7,0.2,1.3,0.8,1.7c0.8,0.4,1.6,0.8,2.4,1.3
				c0.6,0.3,1.3,0.2,1.7-0.3c1.8-1.6,3.4-3.3,4.9-5.1c0.4-0.4,0.9-0.6,1.5-0.5c0.8,0.2,1.6,0.4,2.4,0.7c0.8,0.2,1.6,0.3,2.3,0.4
				c0.6,0.1,1.1,0.6,1.3,1.3c0.4,2.2,0.9,4.3,1.6,6.6c0.2,0.6,0.8,1.1,1.4,1.1c0.9,0.1,1.8,0,2.8,0c0.6,0,1.2-0.4,1.4-1
				c0.8-2.2,1.4-4.5,1.9-6.7c0.1-0.6,0.6-1,1.1-1.1c0.8-0.1,1.6-0.4,2.4-0.6c0.8-0.2,1.6-0.4,2.3-0.7c0.6-0.2,1.3,0,1.6,0.5
				c1.4,1.8,2.9,3.4,4.5,5.1c0.4,0.4,1.1,0.6,1.7,0.3c0.9-0.4,1.7-0.9,2.5-1.3c0.6-0.3,0.9-0.9,0.8-1.6c-0.3-2.3-0.8-4.6-1.4-6.9
				c-0.2-0.6,0-1.2,0.5-1.5c0.7-0.5,1.3-1.1,1.9-1.6c0.6-0.5,1.2-1.1,1.7-1.6c0.4-0.5,1.1-0.6,1.8-0.3c2.1,0.9,4.2,1.8,6.3,2.4
				c0.6,0.2,1.3,0,1.6-0.5c0.6-0.8,1.1-1.5,1.6-2.3c0.3-0.6,0.3-1.3-0.1-1.8c-1.3-1.9-2.9-3.8-4.4-5.4c-0.4-0.4-0.5-1-0.3-1.6
				c0.4-0.8,0.6-1.6,0.9-2.3s0.6-1.5,0.8-2.3c0.2-0.6,0.7-1,1.3-1.1c2.3-0.1,4.5-0.4,6.8-0.8c0.6-0.1,1.1-0.6,1.2-1.2
				c0.2-0.9,0.3-1.8,0.3-2.8c0.1-0.6-0.3-1.3-0.9-1.5c-2.1-1.1-4.3-2-6.4-2.8c-0.6-0.2-0.9-0.7-1-1.3c0-0.8-0.1-1.6-0.3-2.4
				c-0.1-0.8-0.2-1.6-0.4-2.4c-0.1-0.6,0.2-1.2,0.7-1.5c1.9-1.2,3.8-2.4,5.6-3.8c0.6-0.4,0.7-1.1,0.5-1.8c-0.3-0.9-0.6-1.8-0.9-2.6
				c-0.3-0.6-0.8-0.9-1.4-0.9c-2.4,0-4.7,0.2-7,0.6c-0.6,0.1-1.2-0.2-1.5-0.7c-0.4-0.7-0.8-1.4-1.3-2.1c-0.5-0.7-0.9-1.3-1.4-1.9
				c-0.4-0.5-0.4-1.1-0.1-1.6c1.1-1.9,2.2-3.9,3.1-5.9c0.3-0.6,0.1-1.3-0.4-1.8c-0.7-0.6-1.3-1.3-2.1-1.8c-0.5-0.4-1.2-0.4-1.7-0.2
				c-2.1,1.1-4.1,2.4-6,3.8c-0.5,0.4-1.1,0.4-1.6,0.1c-0.7-0.4-1.4-0.9-2.1-1.2c-0.8-0.4-1.4-0.8-2.2-1.1c-0.6-0.3-0.9-0.8-0.9-1.4
				c0.1-2.2,0.1-4.5,0-6.7c-0.1-0.7-0.5-1.3-1.2-1.4c-0.9-0.3-1.7-0.5-2.6-0.7c-0.6-0.1-1.3,0.1-1.6,0.7c-1.3,2-2.5,3.9-3.6,6.1
				c-0.3,0.6-0.9,0.9-1.5,0.9c-0.8-0.1-1.6-0.1-2.4-0.1c-0.8,0.1-1.6,0.1-2.4,0.1c-0.6,0.1-1.2-0.3-1.4-0.9c-0.9-2-1.9-4-3.1-6
				c-0.3-0.6-1-0.8-1.6-0.7c-0.9,0.2-1.8,0.4-2.8,0.7c-0.6,0.2-1,0.7-1.1,1.3c-0.3,2.4-0.4,4.8-0.3,7c0,0.6-0.3,1.2-0.9,1.4
				c-0.7,0.3-1.4,0.6-2.1,1c-0.1,0-0.1,0.1-0.1,0.1c-0.7,0.4-1.4,0.8-2.1,1.2c-0.5,0.3-1.2,0.3-1.6-0.1c-1.8-1.4-3.6-2.6-5.6-3.9
				c-0.6-0.3-1.3-0.3-1.8,0.1c-0.7,0.6-1.4,1.2-2.1,1.8c-0.5,0.4-0.6,1.1-0.4,1.8c0.9,2.2,1.9,4.3,3,6.3c0.3,0.6,0.3,1.2-0.1,1.7
				c-0.5,0.6-1,1.3-1.4,1.9c-0.4,0.7-0.9,1.4-1.3,2.1c-0.3,0.6-0.9,0.8-1.6,0.7c-2.2-0.4-4.4-0.6-6.7-0.8c-0.6-0.1-1.3,0.3-1.5,0.9
				c-0.3,0.9-0.7,1.8-1,2.6c-0.2,0.6,0,1.3,0.4,1.6c1.8,1.6,3.7,3,5.6,4.3c0.5,0.3,0.8,0.9,0.7,1.5l-0.4,2.4
				C351.4,122.7,351.4,122.7,351.4,122.8z M364.8,116.3c1.7-3.4,4.3-6.2,7.3-8.4c3.1-2.2,6.6-3.6,10.4-4.1c3.8-0.6,7.6,0,11.1,1.3
				c3.6,1.3,6.7,3.4,9.2,6.3c2.6,2.8,4.3,6.2,5.3,9.8s1,7.5,0.1,11.1c-0.9,3.6-2.6,7.1-5.1,9.9c-2.4,2.8-5.6,5.1-9.1,6.4
				c-3.4,1.3-7.3,1.9-11.1,1.5c-3.7-0.4-7.3-1.8-10.4-3.8c-3.1-2.1-5.8-4.9-7.5-8.2c-1.7-3.3-2.7-7-2.8-10.8
				C362.2,123.3,363.1,119.6,364.8,116.3z"/>
			<g>
				<path fill="#FFFFFF" d="M382.5,125.1H382c-0.1,0-0.3,0.1-0.3,0.3v3c0,0.1,0.1,0.3,0.3,0.3h0.5c0.1,0,0.3-0.1,0.3-0.3v-3
					C382.7,125.1,382.6,125.1,382.5,125.1z"/>
				<path fill="#FFFFFF" d="M384.1,128.4h-0.5c-0.1,0-0.3,0.1-0.3,0.3v1.3c0,0.1,0.1,0.3,0.3,0.3h0.5c0.1,0,0.3-0.1,0.3-0.3v-1.3
					C384.4,128.5,384.3,128.4,384.1,128.4z"/>
				<path fill="#FFFFFF" d="M380.9,123.6h-0.5c-0.1,0-0.3,0.1-0.3,0.3v1.9c0,0.1,0.1,0.2,0.3,0.2h0.5c0.1,0,0.3-0.1,0.3-0.2v-1.9
					C381.1,123.8,381,123.6,380.9,123.6z"/>
				<path fill="#FFFFFF" d="M379.4,123h-0.5c-0.1,0-0.3,0.1-0.3,0.3v1.9c0,0.1,0.1,0.2,0.3,0.2h0.5c0.1,0,0.3-0.1,0.3-0.2v-1.9
					C379.6,123.1,379.5,123,379.4,123z"/>
				<path fill="#FFFFFF" d="M375.1,121.6h-0.5c-0.1,0-0.3,0.1-0.3,0.3v8.8c0,0.1,0.1,0.3,0.3,0.3h0.5c0.1,0,0.3-0.1,0.3-0.3v-8.8
					C375.3,121.6,375.3,121.6,375.1,121.6z"/>
				<path fill="#FFFFFF" d="M385.9,128.5h-0.5c-0.1,0-0.3,0.1-0.3,0.3v1.3c0,0.1,0.1,0.3,0.3,0.3h0.5c0.1,0,0.3-0.1,0.3-0.3v-1.3
					C386.2,128.6,386.1,128.5,385.9,128.5z"/>
				<path fill="#FFFFFF" d="M377.3,122.4h-0.5c-0.1,0-0.2,0.1-0.2,0.3v7.1c0,0.1,0.1,0.3,0.2,0.3h0.5c0.1,0,0.3-0.1,0.3-0.3v-7.1
					C377.6,122.5,377.4,122.4,377.3,122.4z"/>
				<path fill="#FFFFFF" d="M389.3,122.1h-0.5c-0.1,0-0.3,0.1-0.3,0.3v4.3c0,0.1,0.1,0.3,0.3,0.3h0.5c0.1,0,0.3-0.1,0.3-0.3v-4.3
					C389.6,122.2,389.4,122.1,389.3,122.1z"/>
				<path fill="#FFFFFF" d="M399.9,117.6h-29.4c-0.9,0-1.6,0.7-1.6,1.6v15.2c0,0.9,0.7,1.6,1.6,1.6h29.4c0.9,0,1.6-0.7,1.6-1.6
					v-15.2C401.4,118.4,400.8,117.6,399.9,117.6z M395.3,119.3h3.8v1.1h-3.8V119.3z M396.3,124.5c0-0.6,0.5-1.1,1.1-1.1
					s1.1,0.5,1.1,1.1s-0.5,1.1-1.1,1.1C396.9,125.6,396.3,125.1,396.3,124.5z M396.5,128.4v1.4h-2.6v-1.4H396.5z M394.9,124.5
					c0,0.6-0.5,1.1-1.1,1.1s-1.1-0.5-1.1-1.1s0.5-1.1,1.1-1.1C394.4,123.4,394.9,123.9,394.9,124.5z M390.6,132.6
					c0,0.6-0.5,1.1-1.1,1.1h-16.8c-0.6,0-1.1-0.5-1.1-1.1v-11.8c0-0.6,0.5-1.1,1.1-1.1h16.8c0.6,0,1.1,0.5,1.1,1.1V132.6z
					 M391.8,119.3h2.3v1.5h-2.3V119.3z M393.3,133.8c-0.4,0-0.8-0.4-0.8-0.8s0.4-0.8,0.8-0.8s0.8,0.4,0.8,0.8
					C394.1,133.4,393.7,133.8,393.3,133.8z M397.2,133.6h-1.4v-1.5h1.4V133.6z M399.4,129.8h-2.3v-1.4h2.3V129.8z"/>
				<path fill="#FFFFFF" d="M373.1,124.8h-0.5c-0.1,0-0.3,0.1-0.3,0.3v1.9c0,0.1,0.1,0.3,0.3,0.3h0.5c0.1,0,0.3-0.1,0.3-0.3V125
					C373.4,124.8,373.3,124.8,373.1,124.8z"/>
				<path fill="#FFFFFF" d="M387.6,125.1h-0.5c-0.1,0-0.2,0.1-0.2,0.3v3.7c0,0.1,0.1,0.3,0.2,0.3h0.5c0.1,0,0.3-0.1,0.3-0.3v-3.7
					C387.9,125.2,387.8,125.1,387.6,125.1z"/>
			</g>
			<g enable-background="new    ">
				<path fill="#FFFFFF" d="M375.9,193.9h-5.1v4.5h-1.1v-10h1.1v4.5h5.1v-4.5h1.1v10h-1.1V193.9z"/>
				<path fill="#FFFFFF" d="M381.3,188.4h2.4l2.8,10h-1.1l-0.7-2.6h-4.3l-0.7,2.6h-1.1L381.3,188.4z M380.6,194.8h3.8l-1.5-5.4h-0.8
					L380.6,194.8z"/>
				<path fill="#FFFFFF" d="M393.8,198.2c-0.7,0.1-1.8,0.3-2.8,0.3c-3,0-3.6-1.8-3.6-5.1c0-3.4,0.6-5.2,3.6-5.2c1,0,2.1,0.2,2.8,0.3
					l-0.1,0.9c-0.6-0.1-1.8-0.3-2.6-0.3c-2.2,0-2.6,1.3-2.6,4.2c0,2.8,0.4,4.1,2.6,4.1c0.8,0,1.9-0.1,2.6-0.2L393.8,198.2z"/>
				<path fill="#FFFFFF" d="M398.4,193.9l-1.6,0.1v4.4h-1.2v-10h1.1v4.6l1.6-0.1l2.6-4.6h1.3l-2.9,5l3,4.9H401L398.4,193.9z"/>
			</g>
		</g>
	</g>
</g>
</svg>
