<?xml version="1.0" encoding="utf-8"?>
<!-- Generator: Adobe Illustrator 18.0.0, SVG Export Plug-In . SVG Version: 6.00 Build 0)  -->
<!DOCTYPE svg PUBLIC "-//W3C//DTD SVG 1.1//EN" "http://www.w3.org/Graphics/SVG/1.1/DTD/svg11.dtd">
<svg version="1.1" id="Layer_1" xmlns="http://www.w3.org/2000/svg" xmlns:xlink="http://www.w3.org/1999/xlink" x="0px" y="0px"
	 viewBox="28 53 446 84" enable-background="new 28 53 446 84" xml:space="preserve">
<g>
	<path fill="#FFFFFF" d="M38.3,118.8c4,2.4,9.9,4.5,16.1,4.5c9.2,0,14.5-4.8,14.5-11.9c0-6.5-3.7-10.2-13-13.8
		c-11.4-4-18.3-9.9-18.3-19.6c0-10.8,9-18.8,22.5-18.8c7.1,0,12.2,1.6,15.4,3.4L72.9,70c-2.3-1.3-6.9-3.3-13.2-3.3
		c-9.5,0-13,5.6-13,10.4c0,6.5,4.2,9.7,13.8,13.4c11.7,4.5,17.7,10.2,17.7,20.4c0,10.7-7.9,19.9-24.3,19.9c-6.7,0-14-1.9-17.7-4.5
		L38.3,118.8z"/>
	<path fill="#FFFFFF" d="M108.8,102.7c0-3.7,2.6-6.5,6.1-6.5s6,2.7,6.1,6.5c0,3.7-2.4,6.5-6.1,6.5
		C111.3,109.2,108.8,106.4,108.8,102.7z"/>
	<path fill="#FFFFFF" d="M155.2,60.4h9v61.8h29.7v7.5h-38.6L155.2,60.4L155.2,60.4z"/>
	<path fill="#FFFFFF" d="M222.3,102.7c0-3.7,2.6-6.5,6.1-6.5c3.6,0,6,2.7,6.1,6.5c0,3.7-2.4,6.5-6.1,6.5
		C224.8,109.2,222.3,106.4,222.3,102.7z"/>
	<path fill="#FFFFFF" d="M280,107.9l-7.2,21.8h-9.3l23.6-69.4h10.8l23.7,69.4H312l-7.4-21.8C304.6,107.9,280,107.9,280,107.9z
		 M302.7,101L296,81c-1.6-4.5-2.6-8.7-3.6-12.7h-0.2c-1,4.1-2.1,8.3-3.5,12.5l-6.8,20.1H302.7z"/>
	<path fill="#FFFFFF" d="M350.3,102.7c0-3.7,2.6-6.5,6.1-6.5c3.6,0,6,2.7,6.1,6.5c0,3.7-2.4,6.5-6.1,6.5
		C352.7,109.2,350.2,106.4,350.3,102.7z"/>
	<path fill="#FFFFFF" d="M455.2,99.3c-0.5-9.7-1.1-21.3-1-30h-0.3c-2.4,8.2-5.3,16.7-8.7,26.3l-12.2,33.7h-6.8l-11.2-33.1
		c-3.3-9.8-6.1-18.8-8-27h-0.2c-0.2,8.7-0.7,20.3-1.3,30.7l-1.9,29.7h-8.5l4.8-69.4h11.4L423,93.9c2.9,8.5,5.3,16.2,7,23.3h0.3
		c1.8-7,4.2-14.6,7.3-23.3l12.4-33.6h11.4l4.3,69.4h-8.7L455.2,99.3z"/>
</g>
</svg>
