<?xml version="1.0" encoding="utf-8"?>
<!-- Generator: Adobe Illustrator 18.0.0, SVG Export Plug-In . SVG Version: 6.00 Build 0)  -->
<!DOCTYPE svg PUBLIC "-//W3C//DTD SVG 1.1//EN" "http://www.w3.org/Graphics/SVG/1.1/DTD/svg11.dtd">
<svg version="1.1" id="Layer_1" xmlns="http://www.w3.org/2000/svg" xmlns:xlink="http://www.w3.org/1999/xlink" x="0px" y="0px"
	 viewBox="0 0 1000 1000" enable-background="new 0 0 1000 1000" xml:space="preserve">
<g>
	<path fill="none" d="M662.2,476.4c-4.7-2.4-9.4-4.4-14.3-6.2c-1.3-0.4-2.1-1.6-2.2-2.9c-0.1-1.8-0.2-3.6-0.5-5.4
		c-0.2-1.8-0.5-3.6-0.8-5.4c-0.3-1.3,0.3-2.7,1.5-3.4c4.2-2.6,8.4-5.4,12.3-8.5c1.2-0.9,1.6-2.5,1.1-3.9c-0.7-1.9-1.3-3.9-2.1-5.7
		c-0.5-1.3-1.9-2.1-3.2-2.1c-5.3,0.1-10.4,0.4-15.6,1.2c-1.4,0.2-2.7-0.4-3.4-1.6c-0.9-1.6-1.8-3.1-2.9-4.5c-1-1.5-2.1-3-3.2-4.4
		c-0.9-1.1-0.9-2.5-0.2-3.7c2.5-4.2,4.9-8.7,7-13.2c0.6-1.4,0.3-3-0.8-4c-1.5-1.4-3-2.8-4.5-4.1c-1.1-0.9-2.6-1-3.8-0.3
		c-4.7,2.5-9,5.2-13.3,8.3c-1.1,0.8-2.5,0.9-3.6,0.2c-1.5-1-3.1-1.9-4.8-2.7c-1.6-0.8-3.2-1.7-4.9-2.4c-1.3-0.5-2-1.8-1.9-3.2
		c0.3-4.9,0.3-10,0-14.9c-0.1-1.5-1.1-2.8-2.6-3.2c-1.9-0.5-3.8-1.1-5.7-1.5c-1.4-0.3-2.9,0.3-3.7,1.5c-3,4.4-5.6,8.8-7.9,13.5
		c-0.6,1.2-1.9,2-3.3,1.9c-1.8-0.1-3.6-0.3-5.4-0.2c-1.8,0.1-3.6,0.1-5.4,0.2c-1.4,0.1-2.6-0.7-3.2-1.9c-2.1-4.5-4.4-8.9-7-13.3
		c-0.7-1.2-2.2-1.8-3.6-1.5c-2,0.5-4,0.9-6,1.5c-1.3,0.4-2.3,1.5-2.4,2.9c-0.6,5.3-0.8,10.5-0.7,15.6c0,1.4-0.7,2.6-2,3.2
		c-1.6,0.7-3.2,1.4-4.7,2.3c-0.1,0.1-0.2,0.1-0.3,0.2c-1.5,0.9-3.1,1.7-4.6,2.7c-1.2,0.7-2.6,0.6-3.7-0.2c-3.9-3-8-5.9-12.4-8.6
		c-1.2-0.8-2.8-0.6-3.9,0.3c-1.5,1.3-3.1,2.6-4.6,4c-1,1-1.4,2.5-0.8,3.8c2,4.9,4.1,9.6,6.6,14.1c0.7,1.2,0.6,2.6-0.3,3.7
		c-1.1,1.4-2.3,2.8-3.2,4.3c-0.9,1.6-2,3-2.9,4.6c-0.7,1.2-2.1,1.8-3.4,1.5c-4.9-0.9-9.8-1.5-14.9-1.8c-1.4-0.1-2.8,0.7-3.3,2.1
		c-0.8,1.9-1.5,3.9-2.2,5.8c-0.5,1.3,0,2.8,1,3.6c4.1,3.5,8.2,6.6,12.5,9.5c1.1,0.7,1.7,2,1.5,3.4l-0.9,5.2c0,0.1,0,0.2,0,0.3
		l-0.3,5.2c-0.1,1.4-1,2.6-2.4,3c-4.7,1.5-9.4,3.3-14,5.3c-1.4,0.6-2.2,2.1-2.1,3.6c0.2,2,0.5,4,0.8,6c0.2,1.4,1.2,2.5,2.6,2.8
		c5.1,1.2,10.4,2,15.4,2.5c1.3,0.1,2.4,1,2.8,2.2c0.6,1.8,1.3,3.5,1.8,5.3c0.6,1.7,1.4,3.3,2.2,5c0.6,1.2,0.3,2.6-0.7,3.6
		c-3.5,3.5-6.8,7.3-10,11.3c-1,1.2-1,2.9-0.2,4.2c1.1,1.7,2.3,3.3,3.5,4.9c0.8,1.1,2.2,1.6,3.6,1.3c5.1-1.3,10.1-3,14.9-4.9
		c1.2-0.5,2.5-0.2,3.5,0.7c1.3,1.3,2.7,2.5,3.9,3.7c0.1,0.1,0.2,0.2,0.2,0.2c1.3,1.1,2.7,2.2,4,3.2c1.1,0.9,1.6,2.3,1.2,3.7
		c-1.4,4.7-2.6,9.5-3.6,14.5c-0.3,1.5,0.4,3,1.8,3.7c1.8,1,3.6,1.8,5.4,2.7c1.2,0.6,2.7,0.4,3.8-0.5c3.9-3.6,7.6-7.4,10.9-11.3
		c0.8-1,2.1-1.4,3.3-1c1.8,0.5,3.6,0.9,5.4,1.5c1.7,0.5,3.4,0.7,5.2,1c1.4,0.2,2.5,1.3,2.8,2.7c0.9,4.9,2.1,9.7,3.6,14.5
		c0.4,1.4,1.7,2.4,3.1,2.5c2,0.1,4.1,0,6.1,0c1.4-0.1,2.7-1,3.2-2.3c1.8-4.9,3.3-10,4.4-15c0.3-1.3,1.3-2.2,2.5-2.5
		c1.8-0.3,3.6-0.8,5.4-1.2c1.7-0.4,3.4-0.9,5.1-1.5c1.3-0.5,2.8,0,3.6,1.1c3.1,4,6.5,7.7,10,11.3c1,1,2.5,1.3,3.7,0.7
		c1.9-0.9,3.7-1.9,5.5-2.9c1.2-0.7,1.9-2.1,1.7-3.5c-0.7-5.2-1.8-10.3-3.1-15.3c-0.3-1.2,0.1-2.6,1.1-3.4c1.5-1.1,2.9-2.4,4.2-3.6
		c1.4-1.1,2.6-2.4,3.8-3.7c1-1,2.5-1.3,3.8-0.7c4.6,2.1,9.3,3.8,14.1,5.4c1.3,0.4,2.8,0,3.6-1.1c1.3-1.7,2.4-3.4,3.5-5.2
		c0.8-1.2,0.7-2.8-0.1-3.9c-3-4.3-6.4-8.3-9.9-12.1c-0.9-0.9-1.1-2.3-0.6-3.5c0.8-1.7,1.4-3.4,2.1-5.2c0.7-1.6,1.2-3.3,1.7-5.1
		c0.4-1.3,1.6-2.3,3-2.4c5-0.3,10-0.9,15-1.8c1.4-0.2,2.4-1.3,2.7-2.7c0.3-2,0.6-4.1,0.8-6.2C664.3,478.4,663.5,477,662.2,476.4z
		 M620.7,484.1c-1.9,8.1-5.7,15.8-11.3,22c-5.5,6.3-12.4,11.4-20.2,14.3c-7.7,3-16.2,4.3-24.6,3.3c-8.3-1-16.3-3.8-23.2-8.5
		c-6.8-4.8-12.7-11-16.7-18.4c-3.9-7.4-6-15.6-6.2-24c0-8.4,2-16.7,5.7-24.1c3.8-7.4,9.5-13.8,16.3-18.8c6.8-4.8,14.8-7.8,23-9
		c8.3-1.2,16.9-0.1,24.6,2.7c7.9,2.8,14.9,7.7,20.5,13.9c5.7,6.1,9.7,13.7,11.7,21.8C622.5,467.4,622.6,476.1,620.7,484.1z"/>
	<path fill="#0074AD" d="M608.6,437.6c-5.6-6.2-12.7-11.1-20.5-13.9c-7.8-2.8-16.3-4-24.6-2.7c-8.2,1.2-16.2,4.2-23,9
		c-6.7,4.9-12.5,11.3-16.3,18.8c-3.7,7.5-5.7,15.7-5.7,24.1c0.2,8.4,2.3,16.6,6.2,24c3.9,7.4,9.8,13.6,16.7,18.4
		c6.9,4.7,15,7.5,23.2,8.5c8.3,1.1,16.9-0.3,24.6-3.3c7.8-2.9,14.7-8,20.2-14.3c5.6-6.2,9.4-14,11.3-22c2-8.1,1.9-16.8-0.3-24.8
		C618.3,451.3,614.4,443.7,608.6,437.6z"/>
	<path fill="#0074AD" d="M501.5,328.1c2.6-10.4,2.4-21.6-0.3-32c-2.7-10.4-7.8-20.2-15.2-28.1c-7.2-8-16.3-14.3-26.5-17.9
		c-10-3.6-21.1-5.1-31.8-3.5c-10.6,1.5-20.9,5.4-29.7,11.6c-8.7,6.3-16.1,14.6-21,24.2c-4.8,9.6-7.4,20.3-7.3,31.1
		c0.2,10.8,3,21.4,8,30.9c5.1,9.5,12.7,17.6,21.5,23.7c8.9,6.1,19.3,9.7,30,11c10.8,1.4,21.7-0.4,31.7-4.2
		c10.1-3.8,19-10.3,26.1-18.5C494.2,348.5,499.1,338.5,501.5,328.1z"/>
	<path fill="#0074AD" d="M854.4,300.9c-14-53.2-44.2-104-84.8-139.1C719.7,118.6,594.9,98.1,583,97.4s-52.5-1.1-63.9,0
		c-11.5,1.1-106.6,24.7-118.7,28.3c-36.1,10.9-76.3,29.4-103.1,54.1c-26.2,24.1-45.2,53.6-56.1,88.9c-7.3,23.4-6.6,49.1-14.4,72.2
		c-3.3,9.9-9.5,16.2-10.4,27.1c-1.1,12.4,4.7,26.4,6.5,38.7c6.1,41.1-31.2,74.9-54.8,101.8c-5.6,6.3-10.7,14.1-15.7,20.6
		c-4.1,5.4-10.8,12.1-13,19.3c-6.9,22.6,13.8,33.3,31.3,39.9c12.8,4.8,22.9,6,19.6,21.9c-1.5,7-5,13.6-6.5,20.6
		c-1.6,7.5-5.1,12.2-1.3,20.6c1.9,4.4,7.6,6.4,9.1,9c5.8,9.7,5.6,21.6,11.7,30.9c5.6,8.5,13.5,11.9,14.4,23.2
		c1.5,18.6-8.9,34.9-3.9,54.3c4,15.7,20.8,28.8,28.7,31.2c7.9,2.3,64.6,0.3,64.6,0.3s56.5-3.5,62-2.3c5.5,1.3,14.2,9,26.1,14.3
		c7.5,6.8,13.2,19.3,18.3,28.6c11.1,20.5,26.5,40.4,35.2,62.1h18.3c7.2-8.2,27.1-13.2,37.8-18.2c11.7-5.5,23.8-10.8,35.2-16.8
		c25.3-13.5,50.6-27.1,77-38.7c23.6-10.3,48.1-17,73.1-23.2c24.3-6,49.5-15,74.4-18.1c-7.6-32.1-12.1-54.6-9.1-90.2
		c1.8-21.4,5.7-42.2,10.4-63.1c7.3-32.3,23-60.8,37.8-90.2C843.7,465,879,394.4,854.4,300.9z M470.6,405.3c-1.1-1.4-3-2-4.7-1.4
		c-2.2,0.8-4.3,1.5-6.6,1.9c-2.3,0.6-4.7,1.2-7,1.6c-1.6,0.3-2.9,1.6-3.3,3.2c-1.5,6.5-3.3,13-5.7,19.3c-0.6,1.7-2.3,2.9-4.1,3
		c-2.6,0.1-5.3,0.2-7.9,0.1c-1.9-0.1-3.5-1.4-4-3.2c-1.9-6.3-3.5-12.4-4.6-18.7c-0.3-1.8-1.8-3.3-3.6-3.5c-2.2-0.3-4.5-0.7-6.6-1.3
		c-2.3-0.7-4.7-1.2-7-1.9c-1.6-0.5-3.2,0.1-4.3,1.3c-4.3,5-9,10-14.1,14.6c-1.3,1.2-3.3,1.5-4.9,0.7c-2.3-1.1-4.7-2.2-7-3.5
		c-1.7-1-2.6-2.9-2.3-4.8c1.2-6.4,2.7-12.7,4.6-18.7c0.5-1.8,0-3.7-1.5-4.8c-1.8-1.3-3.5-2.7-5.2-4.1c-0.1-0.1-0.2-0.2-0.3-0.3
		c-1.7-1.6-3.4-3.2-5.1-4.8c-1.2-1.2-2.9-1.5-4.5-0.9c-6.1,2.5-12.6,4.6-19.2,6.4c-1.7,0.5-3.6-0.2-4.6-1.7
		c-1.5-2.1-3.1-4.1-4.5-6.3c-1.1-1.7-1-3.8,0.2-5.4c4.1-5.2,8.3-10,12.9-14.6c1.2-1.2,1.6-3.1,0.8-4.6c-1-2.1-2-4.2-2.8-6.4
		c-0.7-2.3-1.6-4.5-2.4-6.8c-0.5-1.6-1.9-2.7-3.6-2.9c-6.5-0.7-13.3-1.8-19.9-3.3c-1.7-0.4-3.1-1.9-3.3-3.6
		c-0.4-2.6-0.8-5.1-1.1-7.7c-0.2-1.9,0.9-3.8,2.6-4.6c6-2.6,12-4.9,18.1-6.9c1.7-0.5,2.9-2.1,3-3.9l0.4-6.7c0-0.1,0-0.3,0-0.4
		l1.1-6.7c0.3-1.7-0.5-3.4-1.9-4.3c-5.5-3.6-10.9-7.7-16.1-12.2c-1.3-1.1-1.9-3-1.3-4.7c0.9-2.5,1.9-5,2.9-7.5
		c0.7-1.7,2.4-2.8,4.2-2.7c6.6,0.5,13,1.2,19.3,2.4c1.7,0.3,3.5-0.4,4.4-2c1.2-2,2.5-3.9,3.7-5.9c1.3-2,2.7-3.8,4.2-5.6
		c1.1-1.4,1.2-3.3,0.3-4.8c-3.2-5.8-6-11.8-8.5-18.2c-0.7-1.7-0.3-3.7,1.1-4.9c1.9-1.8,3.9-3.5,5.9-5.2c1.4-1.2,3.5-1.4,5.1-0.4
		c5.6,3.5,10.9,7.2,16,11c1.4,1.1,3.3,1.2,4.7,0.3c1.9-1.2,3.9-2.3,5.9-3.4c0.1-0.1,0.2-0.1,0.4-0.2c2-1.1,4.1-2,6.1-2.9
		c1.6-0.7,2.6-2.3,2.5-4.1c-0.1-6.6,0.2-13.3,0.9-20.2c0.2-1.8,1.4-3.3,3.1-3.8c2.6-0.7,5.2-1.3,7.8-1.9c1.8-0.4,3.7,0.4,4.6,2
		c3.4,5.7,6.4,11.4,9,17.2c0.7,1.6,2.3,2.6,4.1,2.5c2.3-0.1,4.7-0.1,7-0.3c2.3-0.1,4.6,0.1,6.9,0.3c1.8,0.1,3.4-0.9,4.2-2.4
		c3-6,6.3-11.7,10.2-17.4c1-1.6,2.9-2.3,4.8-1.9c2.5,0.5,4.9,1.2,7.4,1.9c1.9,0.5,3.2,2.2,3.3,4.1c0.4,6.4,0.3,12.9,0,19.3
		c-0.1,1.8,0.9,3.4,2.5,4.1c2.2,0.9,4.2,2,6.3,3c2.1,1,4.2,2.2,6.1,3.4c1.5,0.9,3.3,0.8,4.7-0.2c5.5-4,11.1-7.5,17.1-10.7
		c1.6-0.8,3.6-0.7,4.9,0.4c2,1.7,3.9,3.4,5.9,5.3c1.4,1.3,1.8,3.4,1,5.2c-2.7,5.8-5.8,11.6-9,17.1c-0.9,1.5-0.8,3.4,0.3,4.8
		c1.5,1.8,2.8,3.7,4.2,5.6c1.4,1.8,2.6,3.8,3.8,5.8c0.9,1.5,2.6,2.3,4.4,2.1c6.6-1,13.3-1.5,20.1-1.6c1.8,0,3.5,1,4.2,2.7
		c1,2.4,1.9,4.9,2.8,7.4c0.6,1.8,0.1,3.8-1.5,5c-5.1,3.9-10.5,7.6-15.9,10.9c-1.5,0.9-2.3,2.7-2,4.4c0.5,2.3,0.8,4.6,1.1,6.9
		c0.4,2.3,0.6,4.7,0.7,7c0.1,1.7,1.2,3.2,2.8,3.8c6.3,2.2,12.5,4.9,18.5,8c1.6,0.8,2.6,2.6,2.5,4.4c-0.2,2.7-0.6,5.3-1,8
		c-0.3,1.8-1.7,3.2-3.4,3.5c-6.4,1.2-12.9,1.9-19.4,2.4c-1.8,0.1-3.3,1.3-3.8,3.1c-0.6,2.2-1.3,4.4-2.2,6.5
		c-0.8,2.3-1.7,4.5-2.7,6.7c-0.7,1.5-0.4,3.3,0.8,4.5c4.5,4.9,8.8,10.1,12.7,15.6c1.1,1.5,1.1,3.5,0.1,5c-1.4,2.3-2.9,4.5-4.6,6.7
		c-1.1,1.4-3,2-4.6,1.4c-6.2-2-12.3-4.2-18.2-6.9c-1.7-0.8-3.7-0.4-4.9,1c-1.6,1.7-3.1,3.3-4.9,4.7c-1.8,1.6-3.6,3.2-5.5,4.7
		c-1.3,1-1.8,2.7-1.4,4.3c1.7,6.4,3.1,13.1,4,19.8c0.2,1.8-0.6,3.6-2.2,4.5c-2.3,1.4-4.7,2.6-7.1,3.8c-1.6,0.8-3.5,0.4-4.8-0.9
		C479,415.2,474.7,410.4,470.6,405.3z M663.2,487.6c-0.2,1.4-1.3,2.4-2.7,2.7c-5,0.8-10,1.3-15,1.6c-1.4,0.1-2.6,1-3,2.3
		c-0.5,1.7-1,3.4-1.8,5c-0.7,1.7-1.4,3.5-2.2,5.1c-0.6,1.2-0.3,2.5,0.5,3.5c3.4,3.8,6.7,8,9.6,12.3c0.8,1.2,0.8,2.7,0,3.9
		c-1.1,1.7-2.3,3.5-3.6,5.1c-0.8,1.1-2.3,1.5-3.6,1.1c-4.8-1.6-9.4-3.5-14-5.6c-1.3-0.6-2.8-0.4-3.8,0.7c-1.2,1.3-2.5,2.5-3.9,3.6
		c-1.4,1.2-2.8,2.4-4.3,3.5c-1,0.8-1.5,2.1-1.1,3.3c1.3,5,2.2,10.2,2.8,15.4c0.2,1.4-0.5,2.8-1.8,3.5c-1.8,1-3.7,2-5.6,2.8
		c-1.2,0.6-2.7,0.3-3.7-0.7c-3.5-3.7-6.8-7.5-9.8-11.5c-0.8-1.1-2.3-1.6-3.6-1.2c-1.7,0.6-3.4,1.1-5.1,1.4c-1.8,0.4-3.6,0.8-5.5,1.1
		c-1.3,0.2-2.3,1.2-2.6,2.4c-1.2,5-2.8,10.1-4.6,14.9c-0.5,1.3-1.8,2.2-3.2,2.2c-2,0-4.1,0.1-6.1-0.1c-1.4-0.1-2.7-1.1-3.1-2.5
		c-1.4-4.9-2.5-9.6-3.3-14.6c-0.2-1.4-1.3-2.5-2.7-2.8c-1.7-0.3-3.5-0.6-5.1-1.1c-1.8-0.6-3.6-1-5.4-1.6c-1.2-0.4-2.5,0-3.3,1
		c-3.4,3.8-7.1,7.6-11.1,11.1c-1,0.9-2.5,1.1-3.8,0.5c-1.8-0.9-3.6-1.8-5.4-2.8c-1.3-0.8-2-2.3-1.7-3.7c1-5,2.3-9.8,3.8-14.5
		c0.4-1.4,0-2.8-1.1-3.7c-1.3-1.1-2.7-2.1-4-3.3c-0.1-0.1-0.2-0.2-0.2-0.2c-1.3-1.3-2.6-2.5-3.9-3.8c-0.9-0.9-2.2-1.2-3.4-0.7
		c-4.8,1.8-9.8,3.4-15,4.7c-1.3,0.3-2.8-0.2-3.6-1.3c-1.2-1.6-2.3-3.2-3.4-4.9c-0.8-1.3-0.7-3,0.2-4.2c3.2-3.9,6.6-7.6,10.2-11.1
		c1-0.9,1.3-2.4,0.7-3.6c-0.7-1.7-1.5-3.3-2.1-5c-0.5-1.8-1.2-3.5-1.7-5.3c-0.4-1.2-1.5-2.1-2.8-2.3c-5.1-0.6-10.3-1.5-15.4-2.8
		c-1.3-0.3-2.3-1.5-2.5-2.8c-0.3-2-0.6-4-0.7-6c-0.1-1.5,0.7-2.9,2.1-3.5c4.7-2,9.4-3.7,14.1-5.1c1.3-0.4,2.3-1.6,2.4-3l0.4-5.2
		c0-0.1,0-0.2,0-0.3l0.9-5.2c0.2-1.3-0.3-2.6-1.4-3.4c-4.2-2.9-8.3-6.1-12.3-9.7c-1-0.9-1.4-2.4-0.9-3.7c0.7-1.9,1.5-3.9,2.3-5.8
		c0.6-1.3,1.9-2.1,3.3-2c5.1,0.4,10.1,1.1,14.9,2.1c1.3,0.3,2.7-0.3,3.4-1.5c1-1.5,2-3,3-4.5c1-1.5,2.2-2.9,3.3-4.3
		c0.9-1,1-2.5,0.3-3.7c-2.4-4.5-4.5-9.2-6.4-14.2c-0.5-1.3-0.2-2.9,0.9-3.8c1.5-1.4,3.1-2.7,4.6-3.9c1.1-0.9,2.7-1,3.9-0.2
		c4.3,2.8,8.4,5.7,12.2,8.8c1.1,0.8,2.5,1,3.7,0.3c1.5-0.9,3.1-1.7,4.6-2.6c0.1-0.1,0.2-0.1,0.3-0.2c1.6-0.8,3.2-1.5,4.8-2.2
		c1.2-0.5,2-1.8,2-3.1c0-5.1,0.3-10.3,1-15.6c0.2-1.4,1.2-2.5,2.5-2.9c2-0.5,4-1,6.1-1.4c1.4-0.3,2.8,0.3,3.5,1.6
		c2.5,4.4,4.8,8.9,6.7,13.5c0.5,1.3,1.8,2.1,3.1,2c1.8-0.1,3.6,0,5.4-0.1c1.8-0.1,3.6,0.1,5.4,0.3c1.4,0.1,2.7-0.6,3.3-1.8
		c2.4-4.6,5.1-9,8.1-13.4c0.8-1.2,2.3-1.7,3.7-1.4c1.9,0.4,3.8,1,5.7,1.6c1.4,0.4,2.5,1.7,2.5,3.2c0.2,5,0.1,10-0.3,14.9
		c-0.1,1.4,0.6,2.6,1.9,3.2c1.7,0.7,3.3,1.6,4.9,2.4c1.7,0.8,3.2,1.7,4.7,2.7c1.1,0.7,2.6,0.7,3.6-0.1c4.3-3,8.7-5.6,13.4-8.1
		c1.2-0.6,2.8-0.5,3.8,0.4c1.6,1.3,3,2.7,4.5,4.1c1.1,1,1.4,2.7,0.7,4c-2.1,4.5-4.6,8.9-7.2,13.1c-0.7,1.2-0.7,2.6,0.2,3.7
		c1.1,1.4,2.1,2.9,3.2,4.4c1.1,1.4,2,3,2.9,4.6c0.7,1.2,2,1.8,3.4,1.7c5.2-0.7,10.3-1,15.6-0.9c1.4,0,2.7,0.8,3.2,2.1
		c0.8,1.9,1.4,3.8,2,5.8c0.5,1.4,0,3-1.2,3.9c-4,3-8.2,5.8-12.5,8.3c-1.2,0.7-1.8,2-1.6,3.4c0.3,1.8,0.5,3.6,0.7,5.4
		c0.3,1.8,0.4,3.6,0.4,5.4c0,1.3,0.9,2.5,2.1,3c4.9,1.8,9.6,4,14.2,6.4c1.2,0.7,2,2,1.9,3.4C663.8,483.5,663.5,485.5,663.2,487.6z
		 M799.3,299.8c-0.3,1.9-1.8,3.4-3.7,3.8c-6.9,1.2-13.8,2.1-20.8,2.5c-1.9,0.1-3.6,1.4-4.1,3.3c-0.7,2.4-1.4,4.8-2.3,7
		c-0.9,2.4-1.8,4.8-2.9,7.2c-0.8,1.6-0.4,3.5,0.8,4.8c4.9,5.2,9.5,10.9,13.7,16.8c1.1,1.6,1.2,3.8,0.1,5.4c-1.6,2.5-3.2,4.9-4.9,7.2
		c-1.1,1.5-3.2,2.1-5,1.6c-6.7-2.1-13.2-4.6-19.6-7.4c-1.8-0.8-3.9-0.4-5.3,1c-1.7,1.8-3.4,3.5-5.3,5.1c-1.9,1.7-3.9,3.4-5.9,5
		c-1.4,1.1-2,2.9-1.5,4.7c1.9,6.9,3.4,14.1,4.3,21.3c0.3,1.9-0.7,3.9-2.4,4.9c-2.5,1.5-5.1,2.8-7.7,4.1c-1.7,0.8-3.8,0.4-5.1-0.9
		c-5-5-9.6-10.2-13.9-15.7c-1.2-1.5-3.2-2.2-5-1.5c-2.3,0.8-4.7,1.6-7.1,2.1c-2.5,0.6-5,1.3-7.6,1.7c-1.8,0.3-3.1,1.7-3.5,3.4
		c-1.6,7-3.6,14-6.1,20.8c-0.7,1.9-2.4,3.1-4.4,3.2c-2.8,0.1-5.7,0.2-8.5,0.1c-2-0.1-3.7-1.5-4.3-3.4c-2-6.7-3.7-13.3-5-20.2
		c-0.4-2-1.9-3.5-3.9-3.8c-2.4-0.4-4.8-0.7-7.2-1.4c-2.5-0.7-5.1-1.3-7.5-2c-1.7-0.5-3.5,0.1-4.6,1.4c-4.6,5.4-9.7,10.7-15.1,15.7
		c-1.4,1.3-3.5,1.6-5.2,0.7c-2.5-1.2-5.1-2.4-7.5-3.8c-1.8-1-2.8-3.1-2.4-5.2c1.3-6.9,3-13.6,5-20.2c0.6-1.9,0-3.9-1.6-5.1
		c-1.9-1.4-3.8-2.9-5.6-4.4c-0.1-0.1-0.2-0.2-0.3-0.3c-1.8-1.7-3.7-3.4-5.5-5.2c-1.3-1.3-3.2-1.6-4.8-0.9c-6.6,2.6-13.6,5-20.7,6.9
		c-1.9,0.5-3.8-0.2-5-1.8c-1.6-2.2-3.3-4.4-4.8-6.8c-1.2-1.8-1.1-4.1,0.2-5.8c4.4-5.6,9-10.7,13.9-15.7c1.3-1.3,1.7-3.3,0.9-5
		c-1.1-2.3-2.2-4.5-3-6.9c-0.8-2.4-1.8-4.8-2.5-7.3c-0.6-1.7-2.1-2.9-3.9-3.1c-7-0.7-14.3-1.9-21.4-3.5c-1.9-0.4-3.3-2-3.6-3.9
		c-0.4-2.8-0.9-5.5-1.1-8.3c-0.2-2.1,0.9-4.1,2.8-4.9c6.5-2.8,13-5.3,19.5-7.4c1.9-0.6,3.2-2.2,3.3-4.2l0.4-7.2c0-0.2,0-0.3,0.1-0.5
		l1.2-7.2c0.3-1.8-0.5-3.7-2.1-4.7c-5.9-3.9-11.7-8.3-17.4-13.1c-1.4-1.2-2-3.3-1.4-5.1c1-2.7,2-5.4,3.1-8.1c0.7-1.8,2.6-3,4.6-2.9
		c7.1,0.5,14,1.3,20.7,2.5c1.9,0.3,3.8-0.5,4.7-2.1c1.3-2.2,2.7-4.2,4-6.4c1.4-2.1,3-4.1,4.5-6c1.2-1.5,1.3-3.5,0.4-5.1
		c-3.4-6.2-6.5-12.7-9.2-19.6c-0.7-1.8-0.3-4,1.2-5.3c2.1-1.9,4.2-3.8,6.3-5.6c1.5-1.3,3.8-1.5,5.5-0.4c6,3.7,11.8,7.7,17.2,11.9
		c1.5,1.1,3.5,1.3,5.1,0.3c2.1-1.3,4.2-2.4,6.3-3.7c0.1-0.1,0.3-0.2,0.4-0.2c2.1-1.1,4.4-2.1,6.6-3.1c1.7-0.8,2.8-2.5,2.7-4.4
		c-0.1-7.1,0.2-14.3,1-21.7c0.2-1.9,1.5-3.5,3.4-4c2.8-0.8,5.6-1.4,8.4-2.1c1.9-0.4,4,0.4,5,2.1c3.6,6.1,6.8,12.3,9.7,18.5
		c0.8,1.7,2.5,2.8,4.4,2.7c2.5-0.2,5-0.1,7.5-0.3c2.5-0.1,5,0.1,7.4,0.3c1.9,0.1,3.7-0.9,4.5-2.6c3.2-6.5,6.8-12.6,10.9-18.7
		c1.1-1.7,3.2-2.5,5.1-2c2.7,0.6,5.3,1.3,8,2.1c2,0.6,3.5,2.3,3.6,4.4c0.4,6.9,0.3,13.9,0,20.7c-0.1,1.9,0.9,3.6,2.7,4.4
		c2.3,1,4.6,2.1,6.8,3.3c2.3,1,4.5,2.4,6.6,3.7c1.6,1,3.6,0.9,5.1-0.2c5.9-4.3,12-8,18.4-11.5c1.7-0.9,3.8-0.8,5.3,0.5
		c2.2,1.8,4.2,3.7,6.3,5.7c1.5,1.4,2,3.7,1.1,5.5c-2.9,6.3-6.2,12.5-9.7,18.3c-1,1.6-0.9,3.7,0.3,5.1c1.6,1.9,3,4,4.5,6
		c1.5,2,2.8,4.1,4.1,6.3c1,1.6,2.8,2.5,4.7,2.2c7.2-1.1,14.3-1.6,21.6-1.7c1.9,0,3.7,1.1,4.5,2.9c1.1,2.6,2,5.3,3,8
		c0.7,2,0.1,4.1-1.6,5.4c-5.4,4.2-11.3,8.2-17.1,11.8c-1.6,1-2.5,2.9-2.1,4.7c0.5,2.5,0.8,4.9,1.2,7.4c0.5,2.5,0.6,5,0.7,7.5
		c0.1,1.8,1.3,3.4,3,4c6.8,2.4,13.4,5.3,19.9,8.6c1.7,0.9,2.8,2.8,2.7,4.7C800.1,294.1,799.7,296.9,799.3,299.8z"/>
	<path fill="#0074AD" d="M723.3,232.6c-7.8-8.6-17.6-15.4-28.5-19.2c-10.8-3.9-22.7-5.5-34.2-3.8c-11.4,1.6-22.5,5.8-32,12.5
		c-9.3,6.8-17.3,15.7-22.6,26c-5.2,10.3-7.9,21.8-7.9,33.5c0.2,11.7,3.2,23.1,8.6,33.3c5.4,10.2,13.6,18.9,23.1,25.5
		c9.6,6.5,20.8,10.4,32.3,11.8c11.6,1.5,23.4-0.4,34.1-4.5c10.8-4.1,20.5-11.1,28.1-19.9c7.8-8.7,13-19.4,15.6-30.6
		c2.8-11.2,2.6-23.3-0.4-34.4C736.7,251.6,731.2,241.1,723.3,232.6z"/>
	<path fill="#FFFFFF" d="M797.7,286.5c-6.5-3.3-13.1-6.2-19.9-8.6c-1.7-0.6-3-2.2-3-4c-0.1-2.5-0.3-5.1-0.7-7.5
		c-0.3-2.5-0.7-5-1.2-7.4c-0.4-1.9,0.5-3.7,2.1-4.7c5.8-3.6,11.7-7.5,17.1-11.8c1.6-1.3,2.2-3.4,1.6-5.4c-0.9-2.7-1.9-5.4-3-8
		c-0.8-1.8-2.6-2.9-4.5-2.9c-7.3,0.1-14.5,0.6-21.6,1.7c-1.9,0.3-3.8-0.6-4.7-2.2c-1.3-2.2-2.5-4.3-4.1-6.3c-1.5-2.1-2.9-4.1-4.5-6
		c-1.2-1.5-1.3-3.5-0.3-5.1c3.5-5.9,6.8-12.1,9.7-18.3c0.9-1.9,0.4-4.1-1.1-5.5c-2-1.9-4.1-3.9-6.3-5.7c-1.5-1.2-3.6-1.4-5.3-0.5
		c-6.5,3.5-12.6,7.3-18.4,11.5c-1.5,1.1-3.5,1.2-5.1,0.2c-2.1-1.3-4.3-2.7-6.6-3.7c-2.2-1.1-4.5-2.3-6.8-3.3
		c-1.7-0.7-2.8-2.5-2.7-4.4c0.4-6.8,0.4-13.9,0-20.7c-0.1-2.1-1.6-3.8-3.6-4.4c-2.6-0.7-5.3-1.5-8-2.1c-2-0.4-4,0.4-5.1,2
		c-4.1,6.1-7.7,12.2-10.9,18.7c-0.8,1.7-2.6,2.8-4.5,2.6c-2.5-0.2-5-0.4-7.4-0.3c-2.5,0.2-5,0.1-7.5,0.3c-1.9,0.1-3.6-1-4.4-2.7
		c-2.8-6.2-6.1-12.4-9.7-18.5c-1-1.7-3-2.6-5-2.1c-2.8,0.6-5.6,1.3-8.4,2.1c-1.8,0.5-3.2,2.1-3.4,4c-0.8,7.4-1.1,14.6-1,21.7
		c0,1.9-1,3.6-2.7,4.4c-2.2,1-4.4,2-6.6,3.1c-0.1,0.1-0.3,0.2-0.4,0.2c-2.1,1.3-4.3,2.4-6.3,3.7c-1.6,1-3.6,0.8-5.1-0.3
		c-5.4-4.2-11.2-8.2-17.2-11.9c-1.7-1.1-3.9-0.9-5.5,0.4c-2.1,1.8-4.3,3.7-6.3,5.6c-1.4,1.3-1.9,3.5-1.2,5.3
		c2.7,6.9,5.7,13.3,9.2,19.6c0.9,1.6,0.8,3.7-0.4,5.1c-1.6,2-3.1,3.9-4.5,6c-1.3,2.2-2.7,4.2-4,6.4c-1,1.6-2.9,2.4-4.7,2.1
		c-6.7-1.2-13.7-2-20.7-2.5c-2-0.1-3.8,1-4.6,2.9c-1.1,2.7-2.1,5.4-3.1,8.1c-0.6,1.8-0.1,3.8,1.4,5.1c5.6,4.8,11.4,9.2,17.4,13.1
		c1.6,1,2.4,2.8,2.1,4.7l-1.2,7.2c0,0.2,0,0.3-0.1,0.5l-0.4,7.2c-0.1,1.9-1.4,3.6-3.3,4.2c-6.5,2.1-13,4.5-19.5,7.4
		c-1.9,0.8-3,2.9-2.8,4.9c0.3,2.8,0.7,5.5,1.1,8.3c0.3,1.9,1.7,3.5,3.6,3.9c7.1,1.7,14.4,2.8,21.4,3.5c1.8,0.2,3.3,1.4,3.9,3.1
		c0.8,2.4,1.7,4.8,2.5,7.3c0.9,2.4,2,4.6,3,6.9c0.8,1.7,0.4,3.7-0.9,5c-4.9,4.9-9.4,10.1-13.9,15.7c-1.3,1.7-1.4,4-0.2,5.8
		c1.5,2.3,3.2,4.5,4.8,6.8c1.1,1.5,3.1,2.3,5,1.8c7.1-1.9,14.1-4.2,20.7-6.9c1.7-0.7,3.5-0.3,4.8,0.9c1.8,1.8,3.7,3.4,5.5,5.2
		c0.1,0.1,0.2,0.2,0.3,0.3c1.8,1.6,3.7,3,5.6,4.4c1.6,1.2,2.2,3.2,1.6,5.1c-2,6.6-3.6,13.3-5,20.2c-0.4,2.1,0.6,4.1,2.4,5.2
		c2.4,1.4,5,2.6,7.5,3.8c1.7,0.8,3.8,0.6,5.2-0.7c5.4-5,10.5-10.3,15.1-15.7c1.1-1.3,2.9-1.9,4.6-1.4c2.5,0.8,5,1.3,7.5,2
		c2.3,0.7,4.7,1,7.2,1.4c2,0.3,3.5,1.8,3.9,3.8c1.3,6.9,2.9,13.4,5,20.2c0.6,1.9,2.3,3.3,4.3,3.4c2.8,0.1,5.7,0.1,8.5-0.1
		c2-0.1,3.7-1.3,4.4-3.2c2.5-6.8,4.5-13.8,6.1-20.8c0.4-1.7,1.7-3.1,3.5-3.4c2.5-0.4,5-1.1,7.6-1.7c2.4-0.5,4.8-1.3,7.1-2.1
		c1.8-0.6,3.8,0,5,1.5c4.3,5.5,9,10.7,13.9,15.7c1.3,1.4,3.4,1.7,5.1,0.9c2.6-1.2,5.2-2.6,7.7-4.1c1.7-1,2.6-2.9,2.4-4.9
		c-1-7.2-2.4-14.4-4.3-21.3c-0.5-1.7,0.1-3.6,1.5-4.7c2-1.6,4-3.3,5.9-5c1.9-1.5,3.6-3.3,5.3-5.1c1.4-1.5,3.5-1.8,5.3-1
		c6.4,2.9,12.9,5.3,19.6,7.4c1.8,0.6,3.8,0,5-1.6c1.7-2.3,3.4-4.7,4.9-7.2c1.1-1.7,1-3.8-0.1-5.4c-4.2-5.9-8.8-11.6-13.7-16.8
		c-1.2-1.3-1.6-3.2-0.8-4.8c1.1-2.3,2-4.8,2.9-7.2c1-2.3,1.7-4.6,2.3-7c0.5-1.9,2.2-3.2,4.1-3.3c7-0.4,13.9-1.3,20.8-2.5
		c1.9-0.3,3.4-1.9,3.7-3.8c0.5-2.8,0.8-5.7,1.1-8.6C800.5,289.2,799.4,287.4,797.7,286.5z M740,297.2c-2.7,11.2-7.9,21.9-15.6,30.6
		c-7.6,8.7-17.3,15.8-28.1,19.9c-10.7,4.1-22.5,6-34.1,4.5c-11.5-1.4-22.6-5.3-32.3-11.8c-9.5-6.6-17.7-15.3-23.1-25.5
		c-5.4-10.2-8.4-21.6-8.6-33.3c0-11.7,2.7-23.1,7.9-33.5c5.2-10.3,13.2-19.2,22.6-26c9.5-6.7,20.5-10.9,32-12.5
		c11.5-1.7,23.4-0.1,34.2,3.8c10.9,3.8,20.7,10.7,28.5,19.2c7.9,8.5,13.4,19.1,16.3,30.2C742.6,273.9,742.7,286,740,297.2z"/>
</g>
<g>
	<path fill="#FFFFFF" d="M217.5,523.9h12.1v43h21.1V577h-33.2V523.9z"/>
	<path fill="#FFFFFF" d="M289.3,554.5h-19.5v12.6h21.8v9.8h-33.9v-53.1h32.8v9.8h-20.7v11h19.5V554.5z"/>
	<path fill="#FFFFFF" d="M312.2,563.3l-3.8,13.6h-12.5l16.2-53.1h15.8l16.5,53.1h-12.9l-4.1-13.6H312.2z M325.6,554.3l-3.3-11.3
		c-0.9-3.2-1.9-7.1-2.7-10.2h-0.2c-0.8,3.2-1.6,7.2-2.4,10.2l-3.2,11.3H325.6z"/>
	<path fill="#FFFFFF" d="M351.5,524.6c3.9-0.6,9.6-1.1,16-1.1c7.9,0,13.4,1.2,17.2,4.2c3.2,2.5,4.9,6.2,4.9,11.1
		c0,6.8-4.8,11.4-9.4,13.1v0.2c3.7,1.5,5.8,5,7.1,9.9c1.7,6,3.3,12.9,4.3,15h-12.3c-0.9-1.5-2.1-5.8-3.7-12.4
		c-1.4-6.6-3.7-8.4-8.6-8.5h-3.6V577h-11.9V524.6z M363.4,547.4h4.7c6,0,9.5-3,9.5-7.6c0-4.9-3.3-7.3-8.8-7.4
		c-2.9,0-4.6,0.2-5.4,0.4V547.4z"/>
	<path fill="#FFFFFF" d="M398.2,577v-53.1h14l11,19.5c3.2,5.6,6.3,12.2,8.7,18.2h0.2c-0.8-7-1-14.2-1-22.1v-15.5h11V577h-12.6
		l-11.3-20.5c-3.2-5.7-6.6-12.5-9.2-18.8l-0.2,0.1c0.3,7,0.5,14.5,0.5,23.2v16H398.2z"/>
	<path fill="#FFFFFF" d="M451.3,570.6c0-4.3,2.9-7.3,7.1-7.3c4.2,0,7,3,7,7.3c0,4.2-2.8,7.3-7.1,7.3
		C454.2,577.8,451.3,574.8,451.3,570.6z"/>
	<path fill="#FFFFFF" d="M360.2,651.2c-0.2-6.4-0.5-14.1-0.5-21.8h-0.2c-1.7,6.8-3.9,14.3-5.9,20.6l-6.5,20.7h-9.4l-5.7-20.6
		c-1.7-6.2-3.5-13.8-4.8-20.7h-0.2c-0.3,7.2-0.6,15.4-0.9,22l-0.9,20.2h-11.1l3.4-53.1h16l5.2,17.7c1.7,6.1,3.3,12.8,4.5,19h0.2
		c1.5-6.1,3.3-13.2,5-19.1l5.7-17.7h15.7l2.9,53.1H361L360.2,651.2z"/>
	<path fill="#FFFFFF" d="M394.1,657.9l-3.8,13.6h-12.5l16.2-53.1h15.8l16.5,53.1h-12.9l-4.1-13.6H394.1z M407.5,648.9l-3.3-11.3
		c-0.9-3.2-1.9-7.1-2.7-10.2h-0.2c-0.8,3.2-1.6,7.2-2.4,10.2l-3.2,11.3H407.5z"/>
	<path fill="#FFFFFF" d="M433.4,618.4h11.9v23.5h0.2c1.2-2,2.4-3.9,3.6-5.8l12.1-17.7h14.7L458.4,641l18.5,30.5h-14l-13-22.9
		l-4.6,5.6v17.3h-11.9V618.4z"/>
	<path fill="#FFFFFF" d="M513.4,649.1h-19.5v12.6h21.8v9.8h-33.9v-53.1h32.8v9.8h-20.7v11h19.5V649.1z"/>
	<path fill="#FFFFFF" d="M521.9,665.1c0-4.3,2.9-7.3,7.1-7.3c4.2,0,7,3,7,7.3c0,4.2-2.8,7.3-7.1,7.3
		C524.9,672.4,521.9,669.3,521.9,665.1z"/>
	<path fill="#FFFFFF" d="M413.5,753.7c3.2,1.7,8.2,3.3,13.3,3.3c5.5,0,8.4-2.3,8.4-5.8c0-3.3-2.5-5.2-8.9-7.5
		c-8.8-3.1-14.6-8-14.6-15.7c0-9.1,7.6-16,20.1-16c6,0,10.4,1.3,13.6,2.7l-2.7,9.7c-2.1-1-5.9-2.5-11.1-2.5s-7.7,2.4-7.7,5.1
		c0,3.4,3,4.9,9.8,7.5c9.4,3.5,13.8,8.4,13.8,15.8c0,8.9-6.9,16.5-21.4,16.5c-6.1,0-12.1-1.6-15.1-3.2L413.5,753.7z"/>
	<path fill="#FFFFFF" d="M467.7,713v20.4h19.8V713h12v53.1h-12v-22.2h-19.8v22.2h-12.1V713H467.7z"/>
	<path fill="#FFFFFF" d="M522.3,752.4l-3.8,13.6h-12.5l16.2-53.1h15.8l16.5,53.1h-12.9l-4.1-13.6H522.3z M535.8,743.5l-3.3-11.3
		c-0.9-3.2-1.9-7.1-2.7-10.2h-0.2c-0.8,3.2-1.6,7.2-2.4,10.2l-3.2,11.3H535.8z"/>
	<path fill="#FFFFFF" d="M561.6,713.7c3.9-0.6,9.6-1.1,16-1.1c7.9,0,13.4,1.2,17.2,4.2c3.2,2.5,4.9,6.2,4.9,11.1
		c0,6.8-4.8,11.4-9.4,13.1v0.2c3.7,1.5,5.8,5,7.1,9.9c1.7,6,3.3,12.9,4.3,15h-12.3c-0.9-1.5-2.1-5.8-3.7-12.4
		c-1.4-6.6-3.7-8.4-8.6-8.5h-3.6v20.9h-11.9V713.7z M573.5,736.5h4.7c6,0,9.5-3,9.5-7.6c0-4.9-3.3-7.3-8.8-7.4
		c-2.9,0-4.6,0.2-5.4,0.4V736.5z"/>
	<path fill="#FFFFFF" d="M639.9,743.6h-19.5v12.6h21.8v9.8h-33.9V713h32.8v9.8h-20.7v11h19.5V743.6z"/>
	<path fill="#FFFFFF" d="M648.5,759.7c0-4.3,2.9-7.3,7.1-7.3c4.2,0,7,3,7,7.3c0,4.2-2.8,7.3-7.1,7.3
		C651.4,766.9,648.5,763.9,648.5,759.7z"/>
</g>
</svg>
