<?xml version="1.0" encoding="utf-8"?>
<!-- Generator: Adobe Illustrator 18.0.0, SVG Export Plug-In . SVG Version: 6.00 Build 0)  -->
<!DOCTYPE svg PUBLIC "-//W3C//DTD SVG 1.1//EN" "http://www.w3.org/Graphics/SVG/1.1/DTD/svg11.dtd">
<svg version="1.1" id="Layer_1" xmlns="http://www.w3.org/2000/svg" xmlns:xlink="http://www.w3.org/1999/xlink" x="0px" y="0px"
	 viewBox="0 0 1000 1000" enable-background="new 0 0 1000 1000" xml:space="preserve">
<g>
	<g id="Breadboard_1_">
		<rect x="209.6" y="749.6" fill="#0074AD" width="264.2" height="12.4"/>
		<polygon fill="#0090C9" points="209.6,749.7 225,734 457.9,734 473.7,749.8 		"/>
		<path fill="none" stroke="#0074AD" stroke-width="3" stroke-miterlimit="10" d="M231,743.6c0.5-30.6,125.5-55.2,115.1-4.4"/>
		<path fill="none" stroke="#0074AD" stroke-width="3" stroke-miterlimit="10" d="M326.1,748.2c0.5-32.8,9.4-26.7,18-4.7h4.9"/>
		<path fill="none" stroke="#0074AD" stroke-width="3" stroke-miterlimit="10" d="M384.6,742.1c-1.5-26.9-34.5-29.3-39.4-1.7"/>
		<path fill="none" stroke="#0074AD" stroke-width="3" stroke-miterlimit="10" d="M386.5,743.8c0.7-24.2,39.2-48.1,39.2-4.2"/>
		<path fill="none" stroke="#0074AD" stroke-width="3" stroke-miterlimit="10" d="M460.3,747.5c0-58.2-36.7-8.6-36.7-8.6"/>
		<path fill="none" stroke="#0074AD" stroke-width="3" stroke-miterlimit="10" d="M234.1,742.1c-2-41.2,26.7-30.1,28.4-6.6
			c0,0,32.8-16.3,35.5,4.4"/>
		<path fill="none" stroke="#0074AD" stroke-width="3" stroke-miterlimit="10" d="M412.9,713.5"/>
		<path fill="none" stroke="#0074AD" stroke-width="3" stroke-miterlimit="10" d="M262.5,735.4c139.5-24.5,117.8-40.3,220.3-40.3
			s184.3,42.7,184.3,42.7"/>
		<path fill="none" stroke="#0074AD" stroke-width="3" stroke-miterlimit="10" d="M360.6,741.2c13.1-30.2,197.9-34.8,309,0
			c0,0-220.5-28.3-230.3,6.6"/>
		<line fill="none" stroke="#FFFFFF" stroke-width="5.5183" stroke-miterlimit="10" x1="326.1" y1="742.1" x2="326.1" y2="742.1"/>
		<path fill="none" stroke="#FFFFFF" stroke-width="3.9449" stroke-miterlimit="10" d="M246.5,747.3"/>
		<rect x="847.4" y="583.1" fill="#0074AD" width="34.2" height="17.4"/>
		<rect x="662.1" y="744.7" fill="#0074AD" width="95.4" height="17.4"/>
		<polygon fill="#0090C9" points="662.1,745.4 667.6,724 751.7,724 757.4,745.8 		"/>
		<path fill="none" stroke="#0074AD" stroke-width="4.7136" stroke-miterlimit="10" d="M663.1,744.6
			c268.5,27.4,305-179.9,201.5-152.8"/>
		<line fill="none" stroke="#FFFFFF" stroke-miterlimit="10" x1="217" y1="747.5" x2="466" y2="747.5"/>
		<g>
			<rect x="356.7" y="741" fill="#FFFFFF" width="8.8" height="2.3"/>
			<polygon fill="#FFFFFF" points="356.6,741 357.2,738 364.9,738 365.4,741 			"/>
		</g>
		<g>
			<rect x="383.7" y="743.2" fill="#FFFFFF" width="4.3" height="1.1"/>
			<polygon fill="#FFFFFF" points="383.6,743 383.9,742 387.6,742 387.9,743 			"/>
		</g>
		<g>
			<rect x="229.7" y="742" fill="#FFFFFF" width="8.8" height="2.3"/>
			<polygon fill="#FFFFFF" points="229.6,742 230.2,739 237.9,739 238.4,742 			"/>
		</g>
		<g>
			<rect x="258.7" y="738" fill="#FFFFFF" width="14.8" height="2.3"/>
			<polygon fill="#FFFFFF" points="258.6,738 259.5,735 272.6,735 273.5,738 			"/>
		</g>
		<g>
			<rect x="294.7" y="740" fill="#FFFFFF" width="7.1" height="2.3"/>
			<polygon fill="#FFFFFF" points="294.6,740 295.1,737 301.3,737 301.7,740 			"/>
		</g>
		<g>
			<rect x="420.7" y="740" fill="#FFFFFF" width="8.8" height="2.3"/>
			<polygon fill="#FFFFFF" points="420.6,740 421.2,737 428.9,737 429.4,740 			"/>
		</g>
		<g>
			<rect x="341.7" y="742" fill="#FFFFFF" width="8.8" height="2.3"/>
			<polygon fill="#FFFFFF" points="341.6,742 342.2,739 349.9,739 350.4,742 			"/>
		</g>
	</g>
	<g id="Laptop_3_">
		<rect x="100.3" y="623.4" fill="#0074AD" width="783.5" height="26.7"/>
		<polygon fill="#0090C9" points="100.3,623.7 146.1,561 836.9,561 883.8,624 		"/>
		<path fill="#0090C9" d="M836.5,238.7H147.6c-0.8,0-1.5,0.7-1.5,1.5v323c0,0.8,0.7,1.5,1.5,1.5h688.9c0.8,0,1.5-0.7,1.5-1.5v-323
			C838,239.4,837.3,238.7,836.5,238.7z"/>
		<path fill="#0074AD" d="M814.5,257.1H174.2c-0.8,0-1.5,0.7-1.5,1.5v282.2c0,0.8,0.7,1.5,1.5,1.5h640.3c0.8,0,1.5-0.7,1.5-1.5
			V258.6C816.1,257.8,815.4,257.1,814.5,257.1z"/>
		<polygon fill="#FFFFFF" points="817.1,603.2 793.1,571 544.1,571 440.4,571 191.4,571 168.1,603.2 568.1,603.2 568,603.2 		"/>
	</g>
	<g>
		<path fill="#FFFFFF" d="M225,308v13.8h16V308h4.3v33H241v-15.5h-16V341h-4.3v-33H225z"/>
		<path fill="#FFFFFF" d="M269.8,325.5h-12.8v11.9h14.3v3.6h-18.6v-33h17.8v3.6h-13.6V322h12.8V325.5z"/>
		<path fill="#FFFFFF" d="M276.8,308h4.3v29.4h14.1v3.6h-18.4V308z"/>
		<path fill="#FFFFFF" d="M299.9,308h4.3v29.4h14.1v3.6h-18.4V308z"/>
		<path fill="#FFFFFF" d="M349.3,324.1c0,11.4-6.9,17.4-15.3,17.4c-8.7,0-14.8-6.8-14.8-16.8c0-10.5,6.5-17.3,15.3-17.3
			C343.5,307.4,349.3,314.3,349.3,324.1z M323.7,324.7c0,7.1,3.8,13.4,10.5,13.4c6.8,0,10.6-6.2,10.6-13.7c0-6.6-3.4-13.4-10.5-13.4
			C327.2,310.9,323.7,317.4,323.7,324.7z"/>
		<path fill="#FFFFFF" d="M364.7,335.8c1.9,1.2,4.7,2.2,7.6,2.2c4.4,0,6.9-2.3,6.9-5.6c0-3.1-1.8-4.9-6.2-6.6
			c-5.4-1.9-8.7-4.7-8.7-9.4c0-5.1,4.3-9,10.7-9c3.4,0,5.8,0.8,7.3,1.6l-1.2,3.5c-1.1-0.6-3.3-1.6-6.3-1.6c-4.5,0-6.2,2.7-6.2,4.9
			c0,3.1,2,4.6,6.6,6.4c5.6,2.2,8.4,4.9,8.4,9.7c0,5.1-3.8,9.5-11.6,9.5c-3.2,0-6.7-0.9-8.4-2.1L364.7,335.8z"/>
		<path fill="#FFFFFF" d="M389.4,308h4.3v29.4h14.1v3.6h-18.4V308z"/>
		<path fill="#FFFFFF" d="M417.9,330.6l-3.4,10.4h-4.4l11.2-33h5.1l11.3,33h-4.6l-3.5-10.4H417.9z M428.7,327.3l-3.2-9.5
			c-0.7-2.2-1.2-4.1-1.7-6h-0.1c-0.5,2-1,4-1.7,6l-3.2,9.6H428.7z"/>
		<path fill="#FFFFFF" d="M470.2,326.5c-0.2-4.6-0.5-10.1-0.5-14.3h-0.1c-1.1,3.9-2.5,8-4.2,12.5l-5.8,16h-3.2l-5.3-15.7
			c-1.6-4.7-2.9-8.9-3.8-12.8h-0.1c-0.1,4.1-0.3,9.7-0.6,14.6l-0.9,14.2h-4.1l2.3-33h5.4l5.6,16c1.4,4.1,2.5,7.7,3.3,11.1h0.1
			c0.8-3.3,2-7,3.5-11.1l5.9-16h5.4l2.1,33H471L470.2,326.5z"/>
		<path fill="#FFFFFF" d="M480.6,338.5c0-1.8,1.2-3.1,2.9-3.1s2.9,1.3,2.9,3.1c0,1.8-1.1,3.1-2.9,3.1
			C481.7,341.5,480.6,340.2,480.6,338.5z"/>
		<path fill="#FFFFFF" d="M243,388.1l-22.7,11.7v-3.4l19.3-9.6v-0.1l-19.3-9.6v-3.4l22.7,11.7V388.1z"/>
	</g>
</g>
</svg>
