<?xml version="1.0" encoding="utf-8"?>
<!-- Generator: Adobe Illustrator 18.0.0, SVG Export Plug-In . SVG Version: 6.00 Build 0)  -->
<!DOCTYPE svg PUBLIC "-//W3C//DTD SVG 1.1//EN" "http://www.w3.org/Graphics/SVG/1.1/DTD/svg11.dtd">
<svg version="1.1" id="Layer_1" xmlns="http://www.w3.org/2000/svg" xmlns:xlink="http://www.w3.org/1999/xlink" x="0px" y="0px"
	 viewBox="0 0 1000 1000" enable-background="new 0 0 1000 1000" xml:space="preserve">
<g>
	<g id="WORKSPACE" display="none">
		<g id="V2" display="inline">
			<g id="Breadboard_1_">
				<rect x="217.6" y="744.8" fill="#0074AD" width="264.2" height="12.4"/>
				<polygon fill="#0090C9" points="217.6,744.9 233,729.2 465.9,729.2 481.7,745 				"/>
				<path fill="none" stroke="#0074AD" stroke-width="3" stroke-miterlimit="10" d="M239,738.8c0.5-30.6,125.5-55.2,115.1-4.4"/>
				<path fill="none" stroke="#0074AD" stroke-width="3" stroke-miterlimit="10" d="M334.1,743.4c0.5-32.8,9.4-26.7,18-4.7h4.9"/>
				<path fill="none" stroke="#0074AD" stroke-width="3" stroke-miterlimit="10" d="M392.6,737.3c-1.5-26.9-34.5-29.3-39.4-1.7"/>
				<path fill="none" stroke="#0074AD" stroke-width="3" stroke-miterlimit="10" d="M394.5,739c0.7-24.2,39.2-48.1,39.2-4.2"/>
				<path fill="none" stroke="#0074AD" stroke-width="3" stroke-miterlimit="10" d="M468.3,742.7c0-58.2-36.7-8.6-36.7-8.6"/>
				<path fill="none" stroke="#0074AD" stroke-width="3" stroke-miterlimit="10" d="M242.1,737.3c-2-41.2,26.7-30.1,28.4-6.6
					c0,0,32.8-16.3,35.5,4.4"/>
				<path fill="none" stroke="#0074AD" stroke-width="3" stroke-miterlimit="10" d="M420.9,708.7"/>
				<path fill="none" stroke="#0074AD" stroke-width="3" stroke-miterlimit="10" d="M270.5,730.6c139.5-24.5,117.8-40.3,220.3-40.3
					S675.1,733,675.1,733"/>
				<path fill="none" stroke="#0074AD" stroke-width="3" stroke-miterlimit="10" d="M368.6,736.4c13.1-30.2,197.9-34.8,309,0
					c0,0-220.5-28.3-230.3,6.6"/>
				
					<line fill="none" stroke="#FFFFFF" stroke-width="5.5183" stroke-miterlimit="10" x1="334.1" y1="737.3" x2="334.1" y2="737.3"/>
				<path fill="none" stroke="#FFFFFF" stroke-width="3.9449" stroke-miterlimit="10" d="M254.5,742.5"/>
				<rect x="855.4" y="578.3" fill="#0074AD" width="34.2" height="17.4"/>
				<rect x="670.1" y="739.9" fill="#0074AD" width="95.4" height="17.4"/>
				<polygon fill="#0090C9" points="670.1,740.6 675.6,719.2 759.7,719.2 765.4,741 				"/>
				<path fill="none" stroke="#0074AD" stroke-width="4.7136" stroke-miterlimit="10" d="M671.1,739.8
					c268.5,27.4,305-179.9,201.5-152.8"/>
				<line fill="none" stroke="#FFFFFF" stroke-miterlimit="10" x1="225" y1="742.7" x2="474" y2="742.7"/>
				<g>
					<rect x="364.7" y="736.2" fill="#FFFFFF" width="8.8" height="2.3"/>
					<polygon fill="#FFFFFF" points="364.6,736.2 365.2,733.2 372.9,733.2 373.4,736.2 					"/>
				</g>
				<g>
					<rect x="391.7" y="738.4" fill="#FFFFFF" width="4.3" height="1.1"/>
					<polygon fill="#FFFFFF" points="391.6,738.2 391.9,737.2 395.6,737.2 395.9,738.2 					"/>
				</g>
				<g>
					<rect x="237.7" y="737.2" fill="#FFFFFF" width="8.8" height="2.3"/>
					<polygon fill="#FFFFFF" points="237.6,737.2 238.2,734.2 245.9,734.2 246.4,737.2 					"/>
				</g>
				<g>
					<rect x="266.7" y="733.2" fill="#FFFFFF" width="14.8" height="2.3"/>
					<polygon fill="#FFFFFF" points="266.6,733.2 267.5,730.2 280.6,730.2 281.5,733.2 					"/>
				</g>
				<g>
					<rect x="302.7" y="735.2" fill="#FFFFFF" width="7.1" height="2.3"/>
					<polygon fill="#FFFFFF" points="302.6,735.2 303.1,732.2 309.3,732.2 309.7,735.2 					"/>
				</g>
				<g>
					<rect x="428.7" y="735.2" fill="#FFFFFF" width="8.8" height="2.3"/>
					<polygon fill="#FFFFFF" points="428.6,735.2 429.2,732.2 436.9,732.2 437.4,735.2 					"/>
				</g>
				<g>
					<rect x="349.7" y="737.2" fill="#FFFFFF" width="8.8" height="2.3"/>
					<polygon fill="#FFFFFF" points="349.6,737.2 350.2,734.2 357.9,734.2 358.4,737.2 					"/>
				</g>
			</g>
			<g id="Laptop_3_">
				<rect x="108.3" y="618.6" fill="#0074AD" width="783.5" height="26.7"/>
				<polygon fill="#0090C9" points="108.3,618.9 154.1,556.2 844.9,556.2 891.8,619.2 				"/>
				<path fill="#0090C9" d="M844.5,233.9H155.6c-0.8,0-1.5,0.7-1.5,1.5v323c0,0.8,0.7,1.5,1.5,1.5h688.9c0.8,0,1.5-0.7,1.5-1.5v-323
					C846,234.6,845.3,233.9,844.5,233.9z"/>
				<path fill="#0074AD" d="M822.5,252.3H182.2c-0.8,0-1.5,0.7-1.5,1.5V536c0,0.8,0.7,1.5,1.5,1.5h640.3c0.8,0,1.5-0.7,1.5-1.5
					V253.8C824.1,253,823.4,252.3,822.5,252.3z"/>
				<polygon fill="#FFFFFF" points="825.1,598.4 801.1,566.2 552.1,566.2 448.4,566.2 199.4,566.2 176.1,598.4 576.1,598.4 
					576,598.4 				"/>
			</g>
			<g>
				<path fill="#FFFFFF" d="M233,303.2V317h16v-13.8h4.3v33H249v-15.5h-16v15.5h-4.3v-33H233z"/>
				<path fill="#FFFFFF" d="M277.8,320.7H265v11.9h14.3v3.6h-18.6v-33h17.8v3.6h-13.6v10.4h12.8v3.5H277.8z"/>
				<path fill="#FFFFFF" d="M284.8,303.2h4.3v29.4h14.1v3.6h-18.4V303.2z"/>
				<path fill="#FFFFFF" d="M307.9,303.2h4.3v29.4h14.1v3.6h-18.4V303.2z"/>
				<path fill="#FFFFFF" d="M357.3,319.3c0,11.4-6.9,17.4-15.3,17.4c-8.7,0-14.8-6.8-14.8-16.8c0-10.5,6.5-17.3,15.3-17.3
					C351.5,302.6,357.3,309.5,357.3,319.3z M331.7,319.9c0,7.1,3.8,13.4,10.5,13.4c6.8,0,10.6-6.2,10.6-13.7
					c0-6.6-3.4-13.4-10.5-13.4C335.2,306.1,331.7,312.6,331.7,319.9z"/>
				<path fill="#FFFFFF" d="M372.7,331c1.9,1.2,4.7,2.2,7.6,2.2c4.4,0,6.9-2.3,6.9-5.6c0-3.1-1.8-4.9-6.2-6.6
					c-5.4-1.9-8.7-4.7-8.7-9.4c0-5.1,4.3-9,10.7-9c3.4,0,5.8,0.8,7.3,1.6l-1.2,3.5c-1.1-0.6-3.3-1.6-6.3-1.6c-4.5,0-6.2,2.7-6.2,4.9
					c0,3.1,2,4.6,6.6,6.4c5.6,2.2,8.4,4.9,8.4,9.7c0,5.1-3.8,9.5-11.6,9.5c-3.2,0-6.7-0.9-8.4-2.1L372.7,331z"/>
				<path fill="#FFFFFF" d="M397.4,303.2h4.3v29.4h14.1v3.6h-18.4V303.2z"/>
				<path fill="#FFFFFF" d="M425.9,325.8l-3.4,10.4h-4.4l11.2-33h5.1l11.3,33h-4.6l-3.5-10.4H425.9z M436.7,322.5l-3.2-9.5
					c-0.7-2.2-1.2-4.1-1.7-6h-0.1c-0.5,2-1,4-1.7,6l-3.2,9.6h9.9V322.5z"/>
				<path fill="#FFFFFF" d="M478.2,321.7c-0.2-4.6-0.5-10.1-0.5-14.3h-0.1c-1.1,3.9-2.5,8-4.2,12.5l-5.8,16h-3.2l-5.3-15.7
					c-1.6-4.7-2.9-8.9-3.8-12.8h-0.1c-0.1,4.1-0.3,9.7-0.6,14.6l-0.9,14.2h-4.1l2.3-33h5.4l5.6,16c1.4,4.1,2.5,7.7,3.3,11.1h0.1
					c0.8-3.3,2-7,3.5-11.1l5.9-16h5.4l2.1,33H479L478.2,321.7z"/>
				<path fill="#FFFFFF" d="M488.6,333.7c0-1.8,1.2-3.1,2.9-3.1s2.9,1.3,2.9,3.1c0,1.8-1.1,3.1-2.9,3.1
					C489.7,336.7,488.6,335.4,488.6,333.7z"/>
				<path fill="#FFFFFF" d="M251,383.3L228.3,395v-3.4l19.3-9.6v-0.1l-19.3-9.6v-3.4l22.7,11.7V383.3z"/>
			</g>
		</g>
		<g id="V1" display="inline">
			<g id="Table">
				<rect x="255.4" y="441.8" fill="#0074AD" width="504.1" height="41.7"/>
				<rect x="222.9" y="428.4" fill="#0090C9" width="570.1" height="26.8"/>
				<rect x="255.4" y="474.2" fill="#0074AD" width="20.1" height="192.4"/>
				<rect x="740.4" y="467.9" fill="#0074AD" width="19.1" height="198.7"/>
				<polygon fill="#0074AD" points="222.9,428.4 256.2,394.2 758.9,394.2 793,428.4 				"/>
			</g>
			<g id="Laptop">
				<rect x="583.9" y="414.5" fill="#FFFFFF" width="166.2" height="5.7"/>
				<polygon fill="#0090C9" points="583.9,414.5 593.6,401.2 740.2,401.2 750.1,414.6 				"/>
				<polygon fill="#FFFFFF" points="600.9,409.2 608.6,402.2 726.1,402.2 734.1,409.2 				"/>
				<path fill="#0090C9" d="M738.9,332.9H595.1c-0.8,0-1.5,0.7-1.5,1.5v65.3c0,0.8,0.7,1.5,1.5,1.5h143.7c0.8,0,1.5-0.7,1.5-1.5
					v-65.3C740.4,333.6,739.7,332.9,738.9,332.9z"/>
				<path fill="#0074AD" d="M734.2,336.8H600.8c-0.8,0-1.5,0.7-1.5,1.5v57.4c0,0.8,0.7,1.5,1.5,1.5h133.4c0.8,0,1.5-0.7,1.5-1.5
					v-57.4C735.7,337.5,735,336.8,734.2,336.8z"/>
			</g>
			<g id="Breadboard">
				<rect x="454.9" y="411.1" fill="#FFFFFF" width="47.9" height="2.2"/>
				<polygon fill="#0090C9" points="454.9,411.1 457.7,408.2 499.9,408.2 502.8,411.1 				"/>
				<line fill="none" stroke="#FFFFFF" stroke-miterlimit="10" x1="458" y1="409.7" x2="461" y2="409.7"/>
				<line fill="none" stroke="#FFFFFF" stroke-miterlimit="10" x1="470" y1="409.7" x2="472" y2="409.7"/>
				<line fill="none" stroke="#FFFFFF" stroke-miterlimit="10" x1="476" y1="409.7" x2="476" y2="409.7"/>
				<line fill="none" stroke="#FFFFFF" stroke-miterlimit="10" x1="486" y1="409.7" x2="488" y2="409.7"/>
				<line fill="none" stroke="#FFFFFF" stroke-miterlimit="10" x1="493" y1="409.7" x2="495" y2="409.7"/>
				<line fill="none" stroke="#FFFFFF" stroke-miterlimit="10" x1="464" y1="408.7" x2="466" y2="408.7"/>
				<path fill="none" stroke="#FFFFFF" stroke-width="0.7149" stroke-miterlimit="10" d="M458.8,410c0.1-5.5,22.7-10,20.9-0.8"/>
				<path fill="none" stroke="#FFFFFF" stroke-miterlimit="10" d="M475.9,410.5c0.1-5.9,1.8-4.8,3.3-0.8h0.7"/>
				<path fill="none" stroke="#FFFFFF" stroke-width="0.7149" stroke-miterlimit="10" d="M486.6,409.7c-0.3-4.9-6.3-5.3-7.1-0.3"/>
				<path fill="none" stroke="#FFFFFF" stroke-width="0.7149" stroke-miterlimit="10" d="M487,410c0.1-4.4,7.1-8.7,7.1-0.8"/>
				<path fill="none" stroke="#FFFFFF" stroke-width="0.7149" stroke-miterlimit="10" d="M500.3,410.7c0-10.5-6.7-1.6-6.7-1.6"/>
				<path fill="none" stroke="#FFFFFF" stroke-width="0.7149" stroke-miterlimit="10" d="M461.6,410.6"/>
				<path fill="none" stroke="#FFFFFF" stroke-width="0.7149" stroke-miterlimit="10" d="M461.8,410.4c-0.4-7.5,2.4-6.2,2.7-1.9
					c0,0,5.9-2.9,6.4,0.8"/>
				<path fill="none" stroke="#FFFFFF" stroke-width="0.7149" stroke-miterlimit="10" d="M491.7,404.5"/>
				<path fill="none" stroke="#FFFFFF" stroke-width="0.7149" stroke-miterlimit="10" d="M464.5,408.5c25.3-4.4,21.3-7.3,39.9-7.3
					c18.6,0,33.4,7.7,33.4,7.7"/>
				<path fill="none" stroke="#FFFFFF" stroke-width="0.7149" stroke-miterlimit="10" d="M482.3,409.5c2.4-5.5,35.9-6.3,56,0
					c0,0-37.6-5.6-39.4,0.7"/>
				<line fill="none" stroke="#FFFFFF" stroke-width="2" stroke-miterlimit="10" x1="550.6" y1="408.8" x2="585.6" y2="409.8"/>
				<rect x="582.8" y="408.1" fill="#FFFFFF" width="7.3" height="3.7"/>
				<rect x="536.9" y="410.2" fill="#FFFFFF" width="17.3" height="3.1"/>
				<polygon fill="#0090C9" points="536.9,410.2 537.9,406.2 553.1,406.2 554.2,410.2 				"/>
			</g>
			<g id="Laptop_1_">
				<rect x="260.9" y="414.5" fill="#FFFFFF" width="166.2" height="5.7"/>
				<polygon fill="#0090C9" points="260.9,414.5 270.6,401.2 417.2,401.2 427.1,414.6 				"/>
				<polygon fill="#FFFFFF" points="277.9,409.2 285.6,402.2 403.1,402.2 411.1,409.2 				"/>
				<path fill="#0090C9" d="M415.9,332.9H272.1c-0.8,0-1.5,0.7-1.5,1.5v65.3c0,0.8,0.7,1.5,1.5,1.5h143.7c0.8,0,1.5-0.7,1.5-1.5
					v-65.3C417.4,333.6,416.7,332.9,415.9,332.9z"/>
				<path fill="#0074AD" d="M411.2,336.8H277.8c-0.8,0-1.5,0.7-1.5,1.5v57.4c0,0.8,0.7,1.5,1.5,1.5h133.4c0.8,0,1.5-0.7,1.5-1.5
					v-57.4C412.7,337.5,412,336.8,411.2,336.8z"/>
			</g>
		</g>
	</g>
	<g id="HARDWARE">
		<g id="Wifi">
			<path fill="#0074AD" d="M581.2,199.9c80.5-80.5,211.5-80.5,292.1,0l33.9-33.9c-99.2-99.2-260.7-99.2-359.9,0L581.2,199.9
				L581.2,199.9z"/>
			<path fill="#0074AD" d="M647.9,266.1c21.1-21.1,49.2-32.8,79.1-32.8c29.9,0,58,11.6,79.1,32.8l33.9-33.9
				c-30.2-30.2-70.4-46.8-113.1-46.8c-42.7,0-82.9,16.6-113.1,46.8L647.9,266.1L647.9,266.1z"/>
			<path fill="#0074AD" d="M747.9,283.1c11.6,11.6,11.6,30.5,0,42.2c-11.6,11.6-30.5,11.6-42.2,0c-11.6-11.6-11.6-30.5,0-42.2
				C717.4,271.5,736.2,271.5,747.9,283.1L747.9,283.1z"/>
		</g>
		<g id="Processor">
			<polygon fill="#0074AD" points="458.5,358.2 285.2,184.8 257,181.4 77.4,361.1 74,394.4 246.8,567.2 281.8,563.8 458,387.6 			
				"/>
			<line fill="none" stroke="#0074AD" stroke-width="9.5969" stroke-miterlimit="10" x1="225.3" y1="186" x2="456" y2="416.7"/>
			<line fill="none" stroke="#0074AD" stroke-width="9.5969" stroke-miterlimit="10" x1="211.7" y1="199.6" x2="442.5" y2="430.3"/>
			<line fill="none" stroke="#0074AD" stroke-width="9.5969" stroke-miterlimit="10" x1="198.2" y1="213.2" x2="428.9" y2="443.9"/>
			<line fill="none" stroke="#0074AD" stroke-width="9.5969" stroke-miterlimit="10" x1="184.6" y1="226.7" x2="415.3" y2="457.5"/>
			<line fill="none" stroke="#0074AD" stroke-width="9.5969" stroke-miterlimit="10" x1="171" y1="240.3" x2="401.7" y2="471"/>
			<line fill="none" stroke="#0074AD" stroke-width="9.5969" stroke-miterlimit="10" x1="157.4" y1="253.9" x2="388.2" y2="484.6"/>
			<line fill="none" stroke="#0074AD" stroke-width="9.5969" stroke-miterlimit="10" x1="143.9" y1="267.4" x2="374.6" y2="498.2"/>
			<line fill="none" stroke="#0074AD" stroke-width="9.5969" stroke-miterlimit="10" x1="130.3" y1="281" x2="361" y2="511.7"/>
			<line fill="none" stroke="#0074AD" stroke-width="9.5969" stroke-miterlimit="10" x1="116.7" y1="294.6" x2="347.4" y2="525.3"/>
			<line fill="none" stroke="#0074AD" stroke-width="9.5969" stroke-miterlimit="10" x1="103.1" y1="308.2" x2="333.9" y2="538.9"/>
			<line fill="none" stroke="#0074AD" stroke-width="9.5969" stroke-miterlimit="10" x1="89.6" y1="321.7" x2="320.3" y2="552.5"/>
			<line fill="none" stroke="#0074AD" stroke-width="9.5969" stroke-miterlimit="10" x1="76" y1="335.3" x2="306.7" y2="566"/>
			<line fill="none" stroke="#0074AD" stroke-width="9.5969" stroke-miterlimit="10" x1="462.8" y1="335.3" x2="225.3" y2="572.8"/>
			<line fill="none" stroke="#0074AD" stroke-width="9.5969" stroke-miterlimit="10" x1="449.2" y1="321.7" x2="211.7" y2="559.2"/>
			<line fill="none" stroke="#0074AD" stroke-width="9.5969" stroke-miterlimit="10" x1="435.7" y1="308.2" x2="198.2" y2="545.7"/>
			<line fill="none" stroke="#0074AD" stroke-width="9.5969" stroke-miterlimit="10" x1="422.1" y1="294.6" x2="184.6" y2="532.1"/>
			<line fill="none" stroke="#0074AD" stroke-width="9.5969" stroke-miterlimit="10" x1="408.5" y1="281" x2="171" y2="518.5"/>
			<line fill="none" stroke="#0074AD" stroke-width="9.5969" stroke-miterlimit="10" x1="394.9" y1="267.4" x2="157.4" y2="505"/>
			<line fill="none" stroke="#0074AD" stroke-width="9.5969" stroke-miterlimit="10" x1="381.4" y1="253.9" x2="143.9" y2="491.4"/>
			<line fill="none" stroke="#0074AD" stroke-width="9.5969" stroke-miterlimit="10" x1="367.8" y1="240.3" x2="130.3" y2="477.8"/>
			<line fill="none" stroke="#0074AD" stroke-width="9.5969" stroke-miterlimit="10" x1="354.2" y1="226.7" x2="116.7" y2="464.2"/>
			<line fill="none" stroke="#0074AD" stroke-width="9.5969" stroke-miterlimit="10" x1="340.7" y1="213.2" x2="103.1" y2="450.7"/>
			<line fill="none" stroke="#0074AD" stroke-width="9.5969" stroke-miterlimit="10" x1="327.1" y1="199.6" x2="89.6" y2="437.1"/>
			<line fill="none" stroke="#0074AD" stroke-width="9.5969" stroke-miterlimit="10" x1="313.5" y1="186" x2="76" y2="423.5"/>
			<circle fill="#FFFFFF" cx="272.8" cy="203.5" r="10"/>
			<g>
				<path fill="#FFFFFF" d="M249.6,251.8c0.2,0.9,0.7,1.9,1.5,2.7c1.2,1.2,2.6,1.3,3.5,0.4c0.9-0.9,0.9-1.8,0.1-3.5
					c-1-2-1.1-3.7,0.2-5c1.4-1.4,3.7-1.3,5.4,0.5c0.9,0.9,1.4,1.8,1.6,2.5l-1.3,0.6c-0.1-0.5-0.5-1.3-1.3-2.2
					c-1.2-1.2-2.5-1-3.1-0.4c-0.9,0.9-0.7,1.8,0.1,3.6c1,2.1,1,3.7-0.4,5c-1.4,1.4-3.7,1.6-5.8-0.6c-0.9-0.9-1.6-2.1-1.8-2.9
					L249.6,251.8z"/>
				<path fill="#FFFFFF" d="M264.9,253.7l-2.8-2.8l1-1l6.8,6.8l-1,1l-2.8-2.8L258,263l-1.2-1.2L264.9,253.7z"/>
				<path fill="#FFFFFF" d="M265.1,264.4l-3.8,1.9l-1.2-1.2l12.3-6l1.4,1.4l-6,12.3l-1.3-1.3l1.9-3.9L265.1,264.4z M269,266.5
					l1.7-3.5c0.4-0.8,0.8-1.5,1.2-2.1l0,0c-0.7,0.4-1.4,0.8-2.1,1.2l-3.5,1.8L269,266.5z"/>
				<path fill="#FFFFFF" d="M270,275.1l3.9-3.9l2.4-8.2l1.3,1.3l-1.2,3.8c-0.3,1-0.6,1.9-1,2.8l0,0c0.9-0.3,1.8-0.6,2.8-1l3.8-1.2
					l1.3,1.3l-8.3,2.2l-3.9,3.9L270,275.1z"/>
				<path fill="#FFFFFF" d="M287.3,274.1l1.2,1.2l-8.2,8.2l3.9,3.9l-1,1l-5.1-5.1L287.3,274.1z"/>
				<path fill="#FFFFFF" d="M288.9,288.3l-3.8,1.9l-1.2-1.2l12.3-6l1.4,1.4l-6,12.3l-1.3-1.3l1.9-3.9L288.9,288.3z M292.8,290.3
					l1.7-3.5c0.4-0.8,0.8-1.5,1.2-2.1l0,0c-0.7,0.4-1.4,0.8-2.1,1.2l-3.5,1.8L292.8,290.3z"/>
				<path fill="#FFFFFF" d="M301.7,290.5l-2.8-2.8l1-1l6.8,6.8l-1,1l-2.8-2.8l-8.1,8.1l-1.2-1.2L301.7,290.5z"/>
				<path fill="#FFFFFF" d="M307.6,304.1l-3.6-3.6l-3.3,3.3l4,4l-1,1l-5.1-5.1l9.1-9.1l4.9,4.9l-1,1l-3.8-3.8l-2.9,2.9l3.6,3.6
					L307.6,304.1z"/>
				<path fill="#FFFFFF" d="M236.4,268.3l-3.8,1.9l-1.2-1.2l12.3-6l1.4,1.4l-6,12.3l-1.3-1.3l1.9-3.9L236.4,268.3z M240.3,270.4
					l1.7-3.5c0.4-0.8,0.8-1.5,1.2-2.1l0,0c-0.7,0.4-1.4,0.8-2.1,1.2l-3.5,1.8L240.3,270.4z"/>
				<path fill="#FFFFFF" d="M240.3,278l9.1-9.1l1.3,1.3l-1.7,7.6c-0.4,1.8-0.8,3.2-1.3,4.6l0,0c1.1-1.3,2.2-2.5,3.6-3.9l3.8-3.8
					l1.1,1.1l-9.1,9.1l-1.2-1.2l1.7-7.5c0.4-1.7,0.8-3.3,1.3-4.8h-0.1c-1.1,1.2-2.2,2.3-3.7,3.9l-3.9,3.9L240.3,278z"/>
				<path fill="#FFFFFF" d="M258.3,277.9c0.8,0.6,1.8,1.4,2.7,2.3c1.7,1.7,2.5,3.3,2.6,4.8c0.1,1.6-0.5,3.1-2,4.6s-3.2,2.3-4.9,2.2
					c-1.7,0-3.6-0.9-5.4-2.7c-0.8-0.8-1.5-1.6-2-2.3L258.3,277.9z M251.3,287.2c0.2,0.4,0.7,0.8,1.1,1.3c2.5,2.5,5.3,2.5,7.8,0
					c2.2-2.1,2.3-4.7-0.2-7.2c-0.6-0.6-1.1-1-1.5-1.3L251.3,287.2z"/>
				<path fill="#FFFFFF" d="M272.9,302.5c1.2-1.3,2.7-3,3.8-4.1l0,0c-1.4,0.8-2.9,1.5-4.6,2.3l-6.1,2.8l-0.9-0.9l2.9-5.8
					c0.9-1.7,1.7-3.3,2.5-4.6l0,0c-1.2,1.1-2.8,2.6-4.2,3.9l-4.2,3.7l-1.1-1.1l9.8-8.5l1.5,1.5l-2.9,6c-0.7,1.5-1.4,2.8-2.2,4l0,0
					c1.2-0.7,2.5-1.4,4-2.1l6.1-2.8l1.5,1.5l-8.6,9.7l-1.2-1.2L272.9,302.5z"/>
				<path fill="#FFFFFF" d="M276.3,308.2l-3.8,1.9l-1.2-1.2l12.3-6l1.4,1.4l-6,12.3l-1.3-1.3l1.9-3.9L276.3,308.2z M280.2,310.3
					l1.7-3.5c0.4-0.8,0.8-1.5,1.2-2.1l0,0c-0.7,0.4-1.4,0.8-2.1,1.2l-3.5,1.8L280.2,310.3z"/>
				<path fill="#FFFFFF" d="M289.4,308.8l1.2,1.2l-4.4,4.4l0,0c0.6-0.1,1.2-0.2,1.7-0.3l6.2-0.6l1.5,1.5l-7.2,0.6l-1.7,8.8l-1.4-1.4
					l1.5-7.5l-1.9,0.1l-3.5,3.5l-1.2-1.2L289.4,308.8z"/>
				<path fill="#FFFFFF" d="M296.6,325.7l-3.6-3.6l-3.3,3.3l4,4l-1,1l-5.1-5.1l9.1-9.1l4.9,4.9l-1,1l-3.8-3.8l-2.8,2.9l3.6,3.6
					L296.6,325.7z"/>
				<path fill="#FFFFFF" d="M201.4,304.3l6.2-12.1l1.3,1.3l-3.1,5.9c-0.8,1.6-1.6,3.1-2.4,4.4l0,0c1.3-0.8,2.9-1.6,4.5-2.4l6.1-3
					l1.3,1.3l-12.4,5.9L201.4,304.3z"/>
				<path fill="#FFFFFF" d="M206.6,309.4l0.7-0.7h1.8c4.4,0.1,6.6,0,7.9-1.3c0.9-0.9,1.3-2.2,0-3.5c-0.8-0.8-1.9-1.1-2.6-1.1
					l0.5-1.2c1.1,0.1,2.4,0.6,3.4,1.6c1.9,1.9,1.4,4,0.1,5.3c-1.6,1.6-4.1,1.8-7.8,1.7l-1.4-0.1l0,0l4,4l-1,1L206.6,309.4z"/>
				<path fill="#FFFFFF" d="M223.9,317.7c-3,3-5.8,3.5-7.7,1.6c-1.7-1.7-1.3-4.5,1.6-7.5c3-3,5.9-3.3,7.7-1.5
					C227.3,312.2,226.7,314.9,223.9,317.7z M219,313.1c-2.3,2.3-2.9,4.3-1.8,5.4c1.2,1.2,3.2,0.4,5.5-1.9c2.2-2.2,3-4.2,1.8-5.4
					C223.4,310.1,221.4,310.7,219,313.1z"/>
				<path fill="#FFFFFF" d="M230.8,318.2L230.8,318.2l-2.4-0.7l0.7-1.1l3,0.9l1,1l-8.8,8.8l-1.2-1.2L230.8,318.2z"/>
				<path fill="#FFFFFF" d="M231.2,334l2.4-2.4l-4.1-4.1l0.8-0.8l9.6-1.7l1.3,1.3l-5.5,5.5l1.2,1.2l-0.9,0.9l-1.2-1.2l-2.4,2.4
					L231.2,334z M234.5,330.6l2.9-2.9c0.5-0.5,0.9-0.9,1.4-1.3l0,0c-0.8,0.2-1.4,0.4-2,0.6l-5.2,0.8l0,0L234.5,330.6z"/>
				<path fill="#FFFFFF" d="M241.7,336.3l-0.9,0.9l-3.4-3.4l0.9-0.9L241.7,336.3z"/>
				<path fill="#FFFFFF" d="M249,342.8c-3,3-5.8,3.5-7.7,1.6c-1.7-1.7-1.3-4.5,1.6-7.5c3-3,5.9-3.3,7.7-1.5
					C252.4,337.2,251.8,340,249,342.8z M244,338.1c-2.3,2.3-2.9,4.3-1.8,5.4c1.2,1.2,3.2,0.4,5.5-1.9c2.2-2.2,3-4.2,1.8-5.4
					C248.5,335.2,246.4,335.7,244,338.1z"/>
				<path fill="#FFFFFF" d="M247.7,346c1.1-1.1,2.6-1.2,4.1-0.6v-0.1c-0.5-1.4-0.2-2.6,0.6-3.4c1.4-1.4,3.5-1.2,5.1,0.4
					c1.7,1.7,1.5,3.6,0.4,4.7c-0.7,0.7-1.9,1.2-3.5,0.6l0,0c0.7,1.5,0.6,3-0.5,4.1c-1.5,1.5-3.9,1.2-5.6-0.4
					C246.4,349.5,246.4,347.3,247.7,346z M252.5,350.7c1.1-1.1,0.8-2.3,0-3.9c-1.3-0.7-2.6-0.6-3.4,0.2c-0.9,0.9-1,2.3,0.1,3.4
					C250.2,351.6,251.6,351.6,252.5,350.7z M253.6,343c-0.9,0.9-0.7,2,0.1,3.3c1,0.5,2.1,0.5,2.9-0.3c0.7-0.7,1-1.9-0.1-2.9
					C255.6,342.2,254.4,342.3,253.6,343z"/>
				<path fill="#FFFFFF" d="M259.8,354.4l-0.9,0.9l-3.4-3.4l0.9-0.9L259.8,354.4z"/>
				<path fill="#FFFFFF" d="M256.7,359.5l0.7-0.7h1.8c4.4,0.1,6.6,0,7.9-1.3c0.9-0.9,1.3-2.2,0-3.5c-0.8-0.8-1.9-1.1-2.6-1.1
					l0.5-1.2c1.1,0.1,2.4,0.6,3.4,1.6c1.9,1.9,1.4,4,0.1,5.3c-1.6,1.6-4.1,1.8-7.8,1.7l-1.4-0.1l0,0l4,4l-1,1L256.7,359.5z"/>
				<path fill="#FFFFFF" d="M274,367.8c-3,3-5.8,3.5-7.7,1.6c-1.7-1.7-1.3-4.5,1.6-7.5c3-3,5.9-3.3,7.7-1.5
					C277.4,362.3,276.8,365,274,367.8z M269.1,363.2c-2.3,2.3-2.9,4.3-1.8,5.4c1.2,1.2,3.2,0.4,5.5-1.9c2.2-2.2,3-4.2,1.8-5.4
					C273.5,360.2,271.5,360.8,269.1,363.2z"/>
				<path fill="#FFFFFF" d="M276,378.9l0.9-3.2c0.3-1.2,0.5-2,0.7-2.9l0,0c-0.8,0.3-1.5,0.5-2.8,0.8l-3.1,0.9l-1.4-1.4l7.4-1.8
					l1.8-7.2l1.4,1.4l-0.9,3.4c-0.3,0.9-0.5,1.7-0.7,2.4l0,0c0.8-0.3,1.5-0.5,2.4-0.7l3.4-0.9l1.4,1.4l-7.2,1.7l-1.8,7.5L276,378.9z
					"/>
				<path fill="#FFFFFF" d="M280.9,383.7l3.9-3.9l2.4-8.2l1.3,1.3l-1.2,3.8c-0.3,1-0.6,1.9-1,2.8l0,0c0.9-0.3,1.8-0.6,2.8-1l3.8-1.2
					l1.3,1.3l-8.3,2.2l-3.9,3.9L280.9,383.7z"/>
				<path fill="#FFFFFF" d="M286.3,387.7l12.5-2.3l0,0l-4.6-4.6l1-1l6.2,6.2l-0.7,0.7l-12.4,2.3l0,0l5.1,5.1l-1,1l-6.7-6.7
					L286.3,387.7z"/>
				<path fill="#FFFFFF" d="M300.2,394.8l-0.9,0.9l-3.4-3.4l0.9-0.9L300.2,394.8z"/>
				<path fill="#FFFFFF" d="M297.1,399.9l0.7-0.7h1.8c4.4,0.1,6.6,0,7.9-1.3c0.9-0.9,1.3-2.2,0-3.5c-0.8-0.8-1.9-1.1-2.6-1.1
					l0.5-1.2c1.1,0.1,2.4,0.6,3.4,1.6c1.9,1.9,1.4,4,0.1,5.3c-1.6,1.6-4.1,1.8-7.8,1.7l-1.4-0.1l0,0l4,4l-1,1L297.1,399.9z"/>
				<path fill="#FFFFFF" d="M314.4,408.2c-3,3-5.8,3.5-7.7,1.6c-1.7-1.7-1.3-4.5,1.6-7.5c3-3,5.9-3.3,7.7-1.5
					C317.8,402.7,317.2,405.4,314.4,408.2z M309.5,403.6c-2.3,2.3-2.9,4.3-1.8,5.4c1.2,1.2,3.2,0.4,5.5-1.9c2.2-2.2,3-4.2,1.8-5.4
					C313.9,400.6,311.9,401.2,309.5,403.6z"/>
				<path fill="#FFFFFF" d="M312.5,413.7c0.2,0.3,0.6,0.6,1,0.9c0.8,0.6,1.7,1,2.7,1c1.1,0.1,2.3-0.3,3.5-1.2l0,0
					c-1.1,0.1-2.1-0.2-3-1.1c-1.6-1.6-1.4-3.8,0.1-5.3c1.7-1.7,4.3-1.9,6.1-0.1c1.8,1.8,1.5,4.4-0.8,6.6c-1.9,1.9-4,2.6-5.7,2.6
					c-1.3,0-2.7-0.5-3.7-1.4c-0.5-0.4-0.9-0.7-1.2-1L312.5,413.7z M318,409c-1.1,1.1-1.2,2.5-0.2,3.6c0.8,0.8,1.8,1,2.7,0.8
					c0.2,0,0.4-0.1,0.5-0.3c1.5-1.5,2.1-3.2,0.9-4.5C320.9,407.6,319.3,407.8,318,409z"/>
				<path fill="#FFFFFF" d="M319.5,420.6c0.2,0.3,0.6,0.6,1,0.9c0.8,0.6,1.7,1,2.7,1c1.1,0.1,2.3-0.3,3.5-1.2l0,0
					c-1.1,0.1-2.1-0.2-3-1.1c-1.6-1.6-1.4-3.8,0.1-5.3c1.7-1.7,4.3-1.9,6.1-0.1c1.8,1.8,1.5,4.4-0.8,6.6c-1.9,1.9-4,2.6-5.7,2.6
					c-1.3,0-2.7-0.5-3.7-1.4c-0.5-0.4-0.9-0.7-1.2-1L319.5,420.6z M325,416c-1.1,1.1-1.2,2.5-0.2,3.6c0.8,0.8,1.8,1,2.7,0.8
					c0.2,0,0.4-0.1,0.5-0.3c1.5-1.5,2.1-3.2,0.9-4.5C327.9,414.6,326.2,414.7,325,416z"/>
				<path fill="#FFFFFF" d="M179.4,331.5c-0.2-0.3-0.6-0.6-0.9-0.8c-2.2-1.6-4.5-1.2-6.2,0.1l0,0c1-0.1,2.2,0.1,3.1,1.1
					c1.6,1.6,1.5,3.8-0.2,5.5c-1.6,1.6-4.2,2-6,0.2c-1.9-1.9-1.7-4.6,0.6-6.9c1.7-1.7,3.7-2.5,5.5-2.5c1.5,0,2.9,0.5,4.1,1.5
					c0.4,0.3,0.7,0.6,0.9,0.8L179.4,331.5z M174,336.2c1.3-1.3,1.3-2.7,0.2-3.8c-0.7-0.7-1.8-0.9-2.8-0.6c-0.2,0.1-0.4,0.2-0.7,0.4
					c-1.4,1.5-1.8,3.2-0.6,4.5C171.2,337.6,172.8,337.5,174,336.2z"/>
				<path fill="#FFFFFF" d="M175,340.3c0.1,0.6,0.6,1.7,1.4,2.5c1.5,1.5,3,1,3.7,0.3c1.2-1.2,0.6-2.9-0.5-4l-0.7-0.7l0.9-0.9
					l0.7,0.7c0.9,0.9,2.4,1.5,3.5,0.5c0.7-0.7,0.9-1.8-0.2-2.9c-0.7-0.7-1.7-1.1-2.3-1.2l0.6-1.2c0.8,0.1,2,0.7,3,1.6
					c1.7,1.7,1.5,3.6,0.4,4.6c-0.9,0.9-2.2,1.1-3.7,0.4l0,0c0.9,1.3,0.9,3-0.3,4.2c-1.4,1.4-3.7,1.5-5.9-0.6c-1-1-1.5-2.2-1.7-2.9
					L175,340.3z"/>
				<path fill="#FFFFFF" d="M190.7,349.7c-3,3-5.8,3.5-7.7,1.6c-1.7-1.7-1.3-4.5,1.6-7.5c3-3,5.9-3.3,7.7-1.5
					C194.1,344.2,193.5,346.9,190.7,349.7z M185.8,345c-2.3,2.3-2.9,4.3-1.8,5.4c1.2,1.2,3.2,0.4,5.5-1.9c2.2-2.2,3-4.2,1.8-5.4
					C190.2,342.1,188.2,342.6,185.8,345z"/>
				<path fill="#FFFFFF" d="M187.3,355.3l0.7-0.7h1.8c4.4,0.1,6.6,0,7.9-1.3c0.9-0.9,1.3-2.2,0-3.5c-0.8-0.8-1.9-1.1-2.6-1.1
					l0.5-1.2c1.1,0.1,2.4,0.6,3.4,1.6c1.9,1.9,1.4,4,0.1,5.3c-1.6,1.6-4.1,1.8-7.8,1.7l-1.4-0.1l0,0l4,4l-1,1L187.3,355.3z"/>
				<path fill="#FFFFFF" d="M204.6,363.6c-3,3-5.8,3.5-7.7,1.6c-1.7-1.7-1.3-4.5,1.6-7.5c3-3,5.9-3.3,7.7-1.5
					C208.1,358.1,207.5,360.8,204.6,363.6z M199.7,358.9c-2.3,2.3-2.9,4.3-1.8,5.4c1.2,1.2,3.2,0.4,5.5-1.9c2.2-2.2,3-4.2,1.8-5.4
					C204.2,356,202.1,356.5,199.7,358.9z"/>
				<path fill="#FFFFFF" d="M202.9,368.1c0.1,0.6,0.6,1.7,1.4,2.5c1.5,1.5,3,1,3.7,0.3c1.2-1.2,0.6-2.9-0.5-4l-0.7-0.7l0.9-0.9
					l0.7,0.7c0.9,0.9,2.4,1.5,3.5,0.5c0.7-0.7,0.9-1.8-0.2-2.9c-0.7-0.7-1.7-1.1-2.3-1.2l0.6-1.2c0.8,0.1,2,0.7,3,1.6
					c1.7,1.7,1.5,3.6,0.4,4.6c-0.9,0.9-2.2,1.1-3.7,0.4l0,0c0.9,1.3,0.9,3-0.3,4.2c-1.4,1.4-3.7,1.5-5.9-0.6c-1-1-1.5-2.2-1.7-2.9
					L202.9,368.1z"/>
				<path fill="#FFFFFF" d="M218.5,371.1L218.5,371.1l-2.4-0.7l0.7-1.1l3,0.9l1,1L212,380l-1.2-1.2L218.5,371.1z"/>
				<path fill="#FFFFFF" d="M215.2,383.1l0.7-0.7h1.8c4.4,0.1,6.6,0,7.9-1.3c0.9-0.9,1.3-2.2,0-3.5c-0.8-0.8-1.9-1.1-2.6-1.1
					l0.5-1.2c1.1,0.1,2.4,0.6,3.4,1.6c1.9,1.9,1.4,4,0.1,5.3c-1.6,1.6-4.1,1.8-7.8,1.7l-1.4-0.1l0,0l4,4l-1,1L215.2,383.1z"/>
				<path fill="#FFFFFF" d="M223.8,389c0.1,0.6,0.6,1.7,1.4,2.5c1.5,1.5,3,1,3.7,0.3c1.2-1.2,0.6-2.9-0.5-4l-0.7-0.7l0.9-0.9
					l0.7,0.7c0.9,0.9,2.4,1.5,3.5,0.5c0.7-0.7,0.9-1.8-0.2-2.9c-0.7-0.7-1.7-1.1-2.3-1.2l0.6-1.2c0.8,0.1,2,0.7,3,1.6
					c1.7,1.7,1.5,3.6,0.4,4.6c-0.9,0.9-2.2,1.1-3.7,0.4l0,0c0.9,1.3,0.9,3-0.3,4.2c-1.4,1.4-3.7,1.5-5.9-0.6c-1-1-1.5-2.2-1.7-2.9
					L223.8,389z"/>
				<path fill="#FFFFFF" d="M232.8,400.7l2.4-2.4l-4.1-4.1l0.8-0.8l9.6-1.7l1.3,1.3l-5.5,5.5l1.2,1.2l-0.9,0.9l-1.2-1.2l-2.4,2.4
					L232.8,400.7z M236.1,397.4l2.9-2.9c0.5-0.5,0.9-0.9,1.4-1.3l0,0c-0.8,0.2-1.4,0.4-2,0.6l-5.2,0.8l0,0L236.1,397.4z"/>
				<path fill="#FFFFFF" d="M236,404l0.7-0.7h1.8c4.4,0.1,6.6,0,7.9-1.3c0.9-0.9,1.3-2.2,0-3.5c-0.8-0.8-1.9-1.1-2.6-1.1l0.5-1.2
					c1.1,0.1,2.4,0.6,3.4,1.6c1.9,1.9,1.4,4,0.1,5.3c-1.6,1.6-4.1,1.8-7.8,1.7l-1.4-0.1l0,0l4,4l-1,1L236,404z"/>
				<path fill="#FFFFFF" d="M244.7,409.9c0.1,0.6,0.6,1.7,1.4,2.5c1.5,1.5,3,1,3.7,0.3c1.2-1.2,0.6-2.9-0.5-4l-0.7-0.7l0.9-0.9
					l0.7,0.7c0.9,0.9,2.4,1.5,3.5,0.5c0.7-0.7,0.9-1.8-0.2-2.9c-0.7-0.7-1.7-1.1-2.3-1.2l0.6-1.2c0.8,0.1,2,0.7,3,1.6
					c1.7,1.7,1.5,3.6,0.4,4.6c-0.9,0.9-2.2,1.1-3.7,0.4l0,0c0.9,1.3,0.9,3-0.3,4.2c-1.4,1.4-3.7,1.5-5.9-0.6c-1-1-1.5-2.2-1.7-2.9
					L244.7,409.9z"/>
				<path fill="#FFFFFF" d="M260.7,410.4l-5.4,5.4c-2,2-2,3.8-0.8,5c1.4,1.4,3.1,1.3,5.1-0.7l5.4-5.4l1.2,1.2l-5.3,5.3
					c-2.8,2.8-5.4,2.5-7.4,0.5c-1.9-1.9-2.2-4.4,0.6-7.2l5.4-5.4L260.7,410.4z"/>
				<path fill="#FFFFFF" d="M262.4,430.4l2.4-2.4l-4.1-4.1l0.8-0.8l9.6-1.7l1.3,1.3l-5.5,5.5l1.2,1.2l-0.9,0.9l-1.2-1.2l-2.4,2.4
					L262.4,430.4z M265.8,427.1l2.9-2.9c0.5-0.5,0.9-0.9,1.4-1.3l0,0c-0.8,0.2-1.4,0.4-2,0.6l-5.2,0.8l0,0L265.8,427.1z"/>
				<path fill="#FFFFFF" d="M267.4,432.6c0.1,0.6,0.6,1.7,1.4,2.5c1.5,1.5,3,1,3.7,0.3c1.2-1.2,0.6-2.9-0.5-4l-0.7-0.7l0.9-0.9
					l0.7,0.7c0.9,0.9,2.4,1.5,3.5,0.5c0.7-0.7,0.9-1.8-0.2-2.9c-0.7-0.7-1.7-1.1-2.3-1.2l0.6-1.2c0.8,0.1,2,0.7,3,1.6
					c1.7,1.7,1.5,3.6,0.4,4.6c-0.9,0.9-2.2,1.1-3.7,0.4l0,0c0.9,1.3,0.9,3-0.3,4.2c-1.4,1.4-3.7,1.5-5.9-0.6c-1-1-1.5-2.2-1.7-2.9
					L267.4,432.6z"/>
				<path fill="#FFFFFF" d="M274.8,438.3c1.1-1.1,2.6-1.2,4.1-0.6v-0.1c-0.5-1.4-0.2-2.6,0.6-3.4c1.4-1.4,3.5-1.2,5.1,0.4
					c1.7,1.7,1.5,3.6,0.4,4.7c-0.7,0.7-1.9,1.2-3.5,0.6l0,0c0.7,1.5,0.6,3-0.5,4.1c-1.5,1.5-3.9,1.2-5.6-0.4
					C273.5,441.8,273.5,439.6,274.8,438.3z M279.6,443c1.1-1.1,0.8-2.3,0-3.9c-1.3-0.7-2.6-0.6-3.4,0.2c-0.9,0.9-1,2.3,0.1,3.4
					C277.3,443.9,278.7,443.9,279.6,443z M280.7,435.3c-0.9,0.9-0.7,2,0.1,3.3c1,0.5,2.1,0.5,2.9-0.3c0.7-0.7,1-1.9-0.1-2.9
					C282.7,434.4,281.5,434.5,280.7,435.3z"/>
				<path fill="#FFFFFF" d="M281.2,447.5c0.2,0.3,0.6,0.6,1,0.9c0.8,0.6,1.7,1,2.7,1c1.1,0.1,2.3-0.3,3.5-1.2l0,0
					c-1.1,0.1-2.1-0.2-3-1.1c-1.6-1.6-1.4-3.8,0.1-5.3c1.7-1.7,4.3-1.9,6.1-0.1c1.8,1.8,1.5,4.4-0.8,6.6c-1.9,1.9-4,2.6-5.7,2.6
					c-1.3,0-2.7-0.5-3.7-1.4c-0.5-0.4-0.9-0.7-1.2-1L281.2,447.5z M286.7,442.8c-1.1,1.1-1.2,2.5-0.2,3.6c0.8,0.8,1.8,1,2.7,0.8
					c0.2,0,0.4-0.1,0.5-0.3c1.5-1.5,2.1-3.2,0.9-4.5C289.5,441.4,287.9,441.6,286.7,442.8z"/>
				<path fill="#FFFFFF" d="M286.6,454.6l0.7-0.7h1.8c4.4,0.1,6.6,0,7.9-1.3c0.9-0.9,1.3-2.2,0-3.5c-0.8-0.8-1.9-1.1-2.6-1.1
					l0.5-1.2c1.1,0.1,2.4,0.6,3.4,1.6c1.9,1.9,1.4,4,0.1,5.3c-1.6,1.6-4.1,1.8-7.8,1.7l-1.4-0.1l0,0l4,4l-1,1L286.6,454.6z"/>
				<path fill="#FFFFFF" d="M295.2,460.4c0.1,0.6,0.6,1.7,1.4,2.5c1.5,1.5,3,1,3.7,0.3c1.2-1.2,0.6-2.9-0.5-4l-0.7-0.7l0.9-0.9
					l0.7,0.7c0.9,0.9,2.4,1.5,3.5,0.5c0.7-0.7,0.9-1.8-0.2-2.9c-0.7-0.7-1.7-1.1-2.3-1.2l0.6-1.2c0.8,0.1,2,0.7,3,1.6
					c1.7,1.7,1.5,3.6,0.4,4.6c-0.9,0.9-2.2,1.1-3.7,0.4l0,0c0.9,1.3,0.9,3-0.3,4.2c-1.4,1.4-3.7,1.5-5.9-0.6c-1-1-1.5-2.2-1.7-2.9
					L295.2,460.4z"/>
				<path fill="#FFFFFF" d="M304.2,472.2l2.4-2.4l-4.1-4.1l0.8-0.8l9.6-1.7l1.3,1.3l-5.5,5.5l1.2,1.2l-0.9,0.9l-1.2-1.2l-2.4,2.4
					L304.2,472.2z M307.6,468.8l2.9-2.9c0.5-0.5,0.9-0.9,1.4-1.3l0,0c-0.8,0.2-1.4,0.4-2,0.6l-5.2,0.8l0,0L307.6,468.8z"/>
			</g>
		</g>
		<g id="TTL-USB">
			<rect x="201.9" y="709.9" fill="#0090C9" width="196.8" height="95.4"/>
			<path fill="#0074AD" d="M139,716.2v77h96v-77H139z M172,780.2h-12v-12h12V780.2z M172,741.2h-12v-12h12V741.2z"/>
			<rect x="387.8" y="716.1" fill="#0074AD" width="20.7" height="83.1"/>
			<line fill="none" stroke="#0074AD" stroke-width="10" stroke-miterlimit="10" x1="398" y1="730.2" x2="427" y2="730.2"/>
			<line fill="none" stroke="#0074AD" stroke-width="10" stroke-miterlimit="10" x1="398" y1="749.2" x2="427" y2="749.2"/>
			<line fill="none" stroke="#0074AD" stroke-width="10" stroke-miterlimit="10" x1="398" y1="769.2" x2="427" y2="769.2"/>
			<line fill="none" stroke="#0074AD" stroke-width="10" stroke-miterlimit="10" x1="398" y1="788.2" x2="427" y2="788.2"/>
			<g>
				<path fill="#FCFCFC" d="M369.3,792.5c-0.5,0.2-1.5,0.4-2.5,0.4c-1.4,0-2.4-0.3-3.1-1c-0.7-0.6-1.1-1.6-1.1-2.7
					c0-2.5,1.8-3.9,4.3-3.9c1,0,1.7,0.2,2.1,0.4l-0.4,1.4c-0.4-0.2-0.9-0.3-1.8-0.3c-1.4,0-2.5,0.8-2.5,2.4c0,1.6,1,2.5,2.4,2.5
					c0.4,0,0.7,0,0.8-0.1V790h-1.2v-1.3h2.8v3.8H369.3z"/>
				<path fill="#FCFCFC" d="M370.7,792.9v-7.5h2l1.6,2.8c0.4,0.8,0.9,1.7,1.2,2.6l0,0c-0.1-1-0.1-2-0.1-3.1v-2.2h1.6v7.5h-1.8
					l-1.6-2.9c-0.4-0.8-0.9-1.8-1.3-2.7l0,0c0,1,0.1,2.1,0.1,3.3v2.3L370.7,792.9L370.7,792.9z"/>
				<path fill="#FCFCFC" d="M378.4,785.4c0.6-0.1,1.4-0.2,2.3-0.2c1.4,0,2.4,0.3,3.1,0.8c0.8,0.6,1.3,1.5,1.3,2.8
					c0,1.4-0.5,2.4-1.3,3.1c-0.8,0.7-2,1-3.5,1c-0.9,0-1.5-0.1-1.9-0.1V785.4z M380.1,791.6c0.1,0,0.4,0,0.6,0
					c1.5,0,2.5-0.8,2.5-2.6c0-1.6-0.9-2.4-2.4-2.4c-0.4,0-0.6,0-0.8,0.1L380.1,791.6L380.1,791.6z"/>
			</g>
			<g>
				<path fill="#FCFCFC" d="M367.9,732l-2.4-7.5h1.9l0.9,3.2c0.3,0.9,0.5,1.8,0.7,2.7l0,0c0.2-0.9,0.4-1.8,0.7-2.7l1-3.2h1.8
					L370,732H367.9z"/>
				<path fill="#FCFCFC" d="M378.7,731.8c-0.3,0.2-1,0.3-1.9,0.3c-2.6,0-3.9-1.6-3.9-3.8c0-2.6,1.8-4,4.1-4c0.9,0,1.6,0.2,1.9,0.3
					l-0.3,1.4c-0.3-0.1-0.8-0.3-1.4-0.3c-1.4,0-2.4,0.8-2.4,2.5c0,1.5,0.9,2.5,2.4,2.5c0.5,0,1.1-0.1,1.4-0.2L378.7,731.8z"/>
				<path fill="#FCFCFC" d="M385,731.8c-0.3,0.2-1,0.3-1.9,0.3c-2.6,0-3.9-1.6-3.9-3.8c0-2.6,1.8-4,4.1-4c0.9,0,1.6,0.2,1.9,0.3
					l-0.3,1.4c-0.3-0.1-0.8-0.3-1.4-0.3c-1.4,0-2.4,0.8-2.4,2.5c0,1.5,0.9,2.5,2.4,2.5c0.5,0,1.1-0.1,1.4-0.2L385,731.8z"/>
			</g>
			<g>
				<path fill="#FCFCFC" d="M374.3,747.2h-2v-1.4h5.8v1.4H376v6.1h-1.7L374.3,747.2L374.3,747.2z"/>
				<path fill="#FCFCFC" d="M383.2,753.3l-0.7-1.4c-0.3-0.5-0.5-0.9-0.7-1.4l0,0c-0.2,0.4-0.3,0.8-0.6,1.4l-0.6,1.4h-1.9l2.2-3.8
					l-2.1-3.7h2l0.7,1.4c0.2,0.5,0.4,0.8,0.6,1.3l0,0c0.2-0.5,0.3-0.8,0.5-1.3l0.6-1.4h1.9l-2.1,3.7l2.2,3.9h-2V753.3z"/>
			</g>
			<g>
				<path fill="#FCFCFC" d="M372.6,767.1c0.5-0.1,1.4-0.2,2.3-0.2c1.1,0,1.9,0.2,2.4,0.6c0.4,0.4,0.7,0.9,0.7,1.6
					c0,1-0.7,1.6-1.3,1.9l0,0c0.5,0.2,0.8,0.7,1,1.4c0.2,0.8,0.5,1.8,0.6,2.1h-1.7c-0.1-0.2-0.3-0.8-0.5-1.8
					c-0.2-0.9-0.5-1.2-1.2-1.2h-0.5v3h-1.7L372.6,767.1L372.6,767.1z M374.3,770.4h0.7c0.9,0,1.4-0.4,1.4-1.1c0-0.7-0.5-1-1.3-1.1
					c-0.4,0-0.6,0-0.8,0.1L374.3,770.4L374.3,770.4z"/>
				<path fill="#FCFCFC" d="M383.3,774.6l-0.7-1.4c-0.3-0.5-0.5-0.9-0.7-1.4l0,0c-0.2,0.4-0.3,0.8-0.6,1.4l-0.6,1.4h-1.9l2.2-3.8
					l-2.1-3.7h2l0.7,1.4c0.2,0.5,0.4,0.8,0.6,1.3l0,0c0.2-0.5,0.3-0.8,0.5-1.3l0.6-1.4h1.9l-2.1,3.7l2.2,3.9h-2V774.6z"/>
			</g>
			<rect x="282.7" y="740.7" fill="#FFFFFF" width="33.9" height="33.9"/>
			<rect x="335.9" y="729" fill="#FFFFFF" width="12.4" height="5.9"/>
			<rect x="335.9" y="746.7" fill="#FFFFFF" width="12.4" height="5.9"/>
			<rect x="335.9" y="737.7" fill="#FFFFFF" width="12.4" height="5.9"/>
			<rect x="248.2" y="782.1" fill="#FFFFFF" width="12.4" height="5.9"/>
			<rect x="248.2" y="754.7" fill="#FFFFFF" width="12.4" height="5.9"/>
		</g>
		<g id="I2C">
			<rect x="669.5" y="612.7" fill="#0074AD" width="232.2" height="232.2"/>
			<circle fill="#FFFFFF" cx="694.5" cy="638.3" r="15.6"/>
			<circle fill="#FFFFFF" cx="694.5" cy="681.1" r="15.6"/>
			<circle fill="#FFFFFF" cx="694.5" cy="723.9" r="15.6"/>
			<circle fill="#FFFFFF" cx="694.5" cy="766.7" r="15.6"/>
			<circle fill="#FFFFFF" cx="694.5" cy="809.5" r="15.6"/>
			<g>
				<path fill="#FFFFFF" d="M718.2,644c0.7,0.4,2.4,1.1,4.1,1.1c2.1,0,3.2-1,3.2-2.4c0-1.7-1.7-2.5-3.6-2.5h-1.7v-3h1.6
					c1.4,0,3.1-0.5,3.1-2c0-1.1-0.9-1.8-2.6-1.8c-1.4,0-3,0.6-3.7,1.1l-0.8-3c1.1-0.7,3.2-1.3,5.5-1.3c3.8,0,5.9,2,5.9,4.4
					c0,1.9-1.1,3.3-3.2,4.1v0.1c2.1,0.4,3.8,2,3.8,4.3c0,3.1-2.7,5.4-7.2,5.4c-2.3,0-4.2-0.6-5.2-1.2L718.2,644z"/>
				<path fill="#FFFFFF" d="M732.7,645.9c0-1.5,1-2.5,2.4-2.5s2.4,1,2.4,2.5c0,1.4-1,2.5-2.4,2.5S732.7,647.3,732.7,645.9z"/>
				<path fill="#FFFFFF" d="M740.3,644c0.7,0.4,2.4,1.1,4.1,1.1c2.1,0,3.2-1,3.2-2.4c0-1.7-1.7-2.5-3.6-2.5h-1.7v-3h1.6
					c1.4,0,3.1-0.5,3.1-2c0-1.1-0.9-1.8-2.6-1.8c-1.4,0-3,0.6-3.7,1.1l-0.8-3c1.1-0.7,3.2-1.3,5.5-1.3c3.8,0,5.9,2,5.9,4.4
					c0,1.9-1.1,3.3-3.2,4.1v0.1c2.1,0.4,3.8,2,3.8,4.3c0,3.1-2.7,5.4-7.2,5.4c-2.3,0-4.2-0.6-5.2-1.2L740.3,644z"/>
				<path fill="#FFFFFF" d="M759.6,648.1l-5.9-18.3h4.5l2.2,7.7c0.6,2.2,1.2,4.3,1.6,6.5h0.1c0.5-2.2,1-4.4,1.7-6.5l2.3-7.8h4.4
					l-6.2,18.3L759.6,648.1L759.6,648.1z"/>
			</g>
			<g>
				<path fill="#FFFFFF" d="M718.2,686.2c1.1,0.6,2.8,1.1,4.6,1.1c1.9,0,2.9-0.8,2.9-2c0-1.1-0.9-1.8-3.1-2.6c-3-1.1-5-2.7-5-5.4
					c0-3.1,2.6-5.5,6.9-5.5c2.1,0,3.6,0.4,4.7,0.9l-0.9,3.3c-0.7-0.4-2-0.9-3.8-0.9s-2.7,0.8-2.7,1.8c0,1.2,1,1.7,3.4,2.6
					c3.2,1.2,4.8,2.9,4.8,5.5c0,3.1-2.4,5.7-7.4,5.7c-2.1,0-4.2-0.5-5.2-1.1L718.2,686.2z"/>
				<path fill="#FFFFFF" d="M732.8,672.4c1.5-0.2,3.5-0.4,5.6-0.4c3.5,0,5.7,0.6,7.5,2c1.9,1.4,3.1,3.7,3.1,6.9c0,3.5-1.3,5.9-3,7.4
					c-1.9,1.6-4.9,2.4-8.4,2.4c-2.1,0-3.7-0.1-4.7-0.3L732.8,672.4L732.8,672.4z M736.9,687.3c0.4,0.1,0.9,0.1,1.4,0.1
					c3.7,0,6.2-2,6.2-6.4c0-3.8-2.2-5.8-5.8-5.8c-0.9,0-1.5,0.1-1.9,0.2L736.9,687.3L736.9,687.3z"/>
				<path fill="#FFFFFF" d="M755.5,685.8l-1.3,4.7h-4.3l5.6-18.3h5.4l5.7,18.3h-4.5l-1.4-4.7H755.5z M760.1,682.7l-1.1-3.9
					c-0.3-1.1-0.7-2.4-0.9-3.5H758c-0.3,1.1-0.5,2.5-0.8,3.5l-1.1,3.9H760.1z"/>
			</g>
			<g>
				<path fill="#FFFFFF" d="M718.2,727.6c1.1,0.6,2.8,1.1,4.6,1.1c1.9,0,2.9-0.8,2.9-2c0-1.1-0.9-1.8-3.1-2.6c-3-1.1-5-2.7-5-5.4
					c0-3.1,2.6-5.5,6.9-5.5c2.1,0,3.6,0.4,4.7,0.9l-0.9,3.3c-0.7-0.4-2-0.9-3.8-0.9s-2.7,0.8-2.7,1.8c0,1.2,1,1.7,3.4,2.6
					c3.2,1.2,4.8,2.9,4.8,5.5c0,3.1-2.4,5.7-7.4,5.7c-2.1,0-4.2-0.5-5.2-1.1L718.2,727.6z"/>
				<path fill="#FFFFFF" d="M746.2,731.4c-0.8,0.4-2.5,0.8-4.7,0.8c-6.3,0-9.6-3.9-9.6-9.1c0-6.2,4.5-9.7,10-9.7
					c2.1,0,3.8,0.4,4.5,0.8l-0.8,3.3c-0.8-0.4-2-0.7-3.5-0.7c-3.3,0-5.8,2-5.8,6.1c0,3.7,2.2,6,5.9,6c1.2,0,2.6-0.3,3.4-0.6
					L746.2,731.4z"/>
				<path fill="#FFFFFF" d="M748.9,713.6h4.2v14.8h7.3v3.5H749L748.9,713.6L748.9,713.6z"/>
			</g>
			<g>
				<path fill="#FFFFFF" d="M722.2,751.1v18.3H718v-18.3H722.2z"/>
				<path fill="#FFFFFF" d="M730.4,755.4L730.4,755.4L727,757l-0.7-3.1l4.7-2.2h3.4v17.6h-4V755.4z"/>
			</g>
			<g>
				<path fill="#FFFFFF" d="M733.4,817.6c-1.3,0.4-3.7,1-6.1,1c-3.3,0-5.8-0.8-7.4-2.5c-1.7-1.6-2.6-4-2.6-6.7
					c0-6.1,4.5-9.6,10.5-9.6c2.4,0,4.2,0.5,5.1,0.9L732,804c-1-0.4-2.3-0.8-4.3-0.8c-3.4,0-6.1,2-6.1,5.9c0,3.8,2.4,6,5.8,6
					c1,0,1.7-0.1,2-0.3v-3.6h-2.8V808h6.8V817.6z"/>
				<path fill="#FFFFFF" d="M736.6,818.4v-18.3h4.8l3.8,6.7c1.1,1.9,2.2,4.2,3,6.3h0.1c-0.3-2.4-0.4-4.9-0.4-7.6v-5.3h3.8v18.3h-4.3
					l-3.9-7.1c-1.1-2-2.3-4.3-3.2-6.5h-0.1c0.1,2.4,0.2,5,0.2,8v5.5L736.6,818.4L736.6,818.4z"/>
				<path fill="#FFFFFF" d="M755.3,800.4c1.5-0.2,3.5-0.4,5.6-0.4c3.5,0,5.7,0.6,7.5,2c1.9,1.4,3.1,3.7,3.1,6.9c0,3.5-1.3,5.9-3,7.4
					c-1.9,1.6-4.9,2.4-8.4,2.4c-2.1,0-3.7-0.1-4.7-0.3L755.3,800.4L755.3,800.4z M759.5,815.3c0.4,0.1,0.9,0.1,1.4,0.1
					c3.7,0,6.2-2,6.2-6.4c0-3.8-2.2-5.8-5.8-5.8c-0.9,0-1.5,0.1-1.9,0.2L759.5,815.3L759.5,815.3z"/>
			</g>
			<rect x="783.6" y="630.6" fill="#FFFFFF" width="14.3" height="37.5"/>
			<rect x="783.6" y="793.9" fill="#FFFFFF" width="14.3" height="37.5"/>
			<rect x="808.1" y="631.5" fill="#FFFFFF" width="14.3" height="37.5"/>
			<rect x="808.1" y="794.8" fill="#FFFFFF" width="14.3" height="37.5"/>
			<rect x="851.3" y="714.5" fill="#FFFFFF" width="37.5" height="14.3"/>
			<rect x="851.3" y="751.1" fill="#FFFFFF" width="37.5" height="14.3"/>
			<rect x="851.3" y="733.2" fill="#FFFFFF" width="37.5" height="14.3"/>
			<rect x="769.3" y="717.1" fill="#FFFFFF" width="48.3" height="48.3"/>
		</g>
		<g id="LED">
			<rect x="528.6" y="503.8" fill="#0074AD" width="67.8" height="19.7"/>
			<circle fill="#0074AD" cx="562.5" cy="426.2" r="25.7"/>
			<rect x="536.8" y="426.2" fill="#0074AD" width="51.4" height="83.3"/>
			<polygon fill="#FFFFFF" points="548.3,456.2 563.2,485.2 569,485.2 569,498 569,498 569,456.2 			"/>
			<polygon fill="#FFFFFF" points="550,471.5 560,489.6 560,495.2 550,495.2 			"/>
			<rect x="547.8" y="516" fill="#0074AD" width="5.4" height="123.8"/>
			<rect x="572.5" y="516" fill="#0074AD" width="5.4" height="162.3"/>
		</g>
	</g>
	<g id="WORKSHOP" display="none">
		<path display="inline" fill="none" stroke="#0074AD" stroke-width="10" stroke-miterlimit="10" d="M221.3,831
			c-17.5-4.7-27.2-16.8-31.7-34.1c-5.5-21.5,5.9-39.2,4.3-59.8c-1-12.5-9.7-16.2-15.8-25.6c-6.7-10.3-6.6-23.4-13-34.1
			c-1.7-2.9-7.9-5.1-10.1-10c-4.1-9.3-0.3-14.5,1.4-22.8c1.7-7.7,5.6-15.1,7.2-22.8c3.7-17.5-7.5-18.9-21.6-24.2
			c-19.4-7.3-42.2-19.2-34.6-44.1c2.4-7.9,9.9-15.4,14.4-21.3c5.5-7.2,11.1-15.8,17.3-22.8c26-29.7,67.3-67,60.5-112.4
			c-2-13.5-8.4-29-7.2-42.7c1.1-12,7.8-18.9,11.5-29.9c8.6-25.5,7.8-53.8,15.8-79.7c12.1-39,33.1-71.5,62-98.2
			c29.6-27.3,74-47.7,113.8-59.8c13.4-4.1,131.1-31.3,131.1-31.3h70.6c70.2,6.9,150.9,23.5,206,71.1c44.9,38.8,78.2,94.9,93.6,153.6
			C924,383.4,885,461.3,840.6,549c-16.4,32.4-33.8,64-41.8,99.6c-5.2,23.1-9.5,46.1-11.5,69.7c-3.3,39.3,1.7,64.1,10.1,99.6
			c-27.5,3.3-55.2,13.3-82.1,19.9c-27.6,6.8-54.7,14.2-80.7,25.6c-29.1,12.8-57.1,27.8-85,42.7c-12.6,6.7-25.9,12.4-38.9,18.5
			c-11.8,5.5-33.8,11.3-41.8,19.9H449c-9.6-23.8-26.6-45.6-38.9-68.3c-5.6-10.3-11.9-23.8-20.2-31.3c-7.7-7-21.3-8.1-28.8-15.6
			h-76.4v1.4h-63.4"/>
		<path display="inline" fill="#0074AD" d="M322.2,272.9l-0.5,7.3c-0.1,2-1.5,3.7-3.4,4.3c-6.7,2.1-13.3,4.7-20,7.6
			c-2,0.9-3.1,2.9-2.9,5.1c0.3,2.9,0.7,5.7,1.2,8.5c0.3,1.9,1.7,3.6,3.7,4c7.3,1.7,14.8,2.9,22,3.6c1.8,0.2,3.4,1.4,4,3.2
			c0.8,2.5,1.8,5,2.6,7.5c0.9,2.4,2,4.7,3.1,7.1c0.8,1.7,0.4,3.8-0.9,5.1c-5,5.1-9.7,10.4-14.2,16.1c-1.4,1.7-1.4,4.1-0.2,5.9
			c1.6,2.4,3.3,4.6,5,6.9c1.2,1.6,3.2,2.3,5.1,1.8c7.3-1.9,14.4-4.3,21.2-7c1.7-0.7,3.6-0.3,4.9,0.9c1.8,1.8,3.8,3.5,5.6,5.3
			c0.1,0.1,0.2,0.2,0.4,0.3c1.8,1.6,3.8,3.1,5.7,4.5c1.6,1.2,2.2,3.3,1.6,5.3c-2.1,6.7-3.7,13.6-5.1,20.7c-0.4,2.1,0.6,4.2,2.5,5.3
			c2.5,1.4,5.1,2.6,7.7,3.9c1.8,0.9,3.9,0.6,5.4-0.7c5.6-5.1,10.8-10.5,15.5-16.1c1.2-1.4,3-2,4.7-1.5c2.6,0.8,5.2,1.3,7.7,2.1
			c2.4,0.7,4.9,1,7.3,1.4c2,0.3,3.6,1.9,4,3.9c1.3,7,3,13.8,5.1,20.7c0.6,2,2.4,3.4,4.4,3.5c2.9,0.1,5.8,0.1,8.7-0.1
			c2-0.1,3.8-1.4,4.5-3.3c2.6-7,4.6-14.2,6.2-21.4c0.4-1.8,1.8-3.2,3.6-3.5c2.6-0.4,5.2-1.1,7.8-1.7c2.5-0.5,4.9-1.3,7.3-2.1
			c1.9-0.7,3.9,0,5.2,1.6c4.5,5.7,9.2,11,14.3,16.1c1.4,1.4,3.5,1.8,5.3,1c2.7-1.3,5.3-2.7,7.9-4.2c1.7-1,2.7-3,2.5-5
			c-1-7.4-2.5-14.7-4.4-21.8c-0.5-1.8,0.1-3.7,1.6-4.8c2.1-1.6,4.1-3.4,6.1-5.1c2-1.6,3.7-3.4,5.4-5.2c1.4-1.5,3.6-1.9,5.4-1
			c6.5,2.9,13.2,5.4,20.1,7.6c1.9,0.6,3.9,0,5.1-1.6c1.8-2.4,3.5-4.8,5-7.4c1.1-1.7,1-3.9-0.1-5.6c-4.3-6.1-9.1-11.9-14-17.3
			c-1.2-1.3-1.6-3.3-0.8-5c1.1-2.4,2-4.9,3-7.4c1-2.3,1.7-4.8,2.4-7.2c0.5-1.9,2.2-3.3,4.2-3.4c7.2-0.5,14.3-1.3,21.4-2.6
			c1.9-0.4,3.5-1.9,3.8-3.9c0.5-2.9,0.9-5.8,1.1-8.8c0.2-2-1-3.9-2.8-4.8c-6.7-3.4-13.4-6.3-20.4-8.8c-1.8-0.6-3-2.3-3.1-4.2
			c-0.1-2.6-0.3-5.2-0.7-7.7c-0.3-2.6-0.7-5.1-1.2-7.6c-0.4-1.9,0.5-3.8,2.2-4.9c6-3.7,12-7.7,17.6-12.1c1.7-1.3,2.3-3.5,1.6-5.5
			c-0.9-2.8-1.9-5.5-3-8.2c-0.8-1.8-2.6-3-4.6-2.9c-7.5,0.1-14.8,0.6-22.2,1.7c-1.9,0.3-3.8-0.6-4.8-2.3c-1.3-2.2-2.6-4.4-4.2-6.4
			c-1.5-2.1-3-4.2-4.6-6.2c-1.2-1.5-1.3-3.6-0.3-5.3c3.6-6,7-12.4,10-18.8c0.9-1.9,0.4-4.2-1.1-5.7c-2.1-2-4.2-4-6.5-5.8
			c-1.5-1.2-3.7-1.4-5.5-0.5c-6.6,3.6-12.9,7.5-18.9,11.8c-1.5,1.1-3.6,1.2-5.2,0.2c-2.2-1.4-4.4-2.7-6.8-3.8
			c-2.3-1.2-4.6-2.4-7-3.4c-1.8-0.8-2.9-2.6-2.7-4.5c0.4-7,0.4-14.2,0-21.3c-0.1-2.1-1.6-3.9-3.7-4.5c-2.7-0.8-5.4-1.5-8.2-2.1
			c-2-0.4-4.1,0.4-5.3,2.1c-4.2,6.3-7.9,12.6-11.2,19.2c-0.9,1.8-2.7,2.8-4.7,2.7c-2.5-0.2-5.1-0.4-7.6-0.3
			c-2.6,0.2-5.2,0.1-7.7,0.3c-1.9,0.1-3.7-1-4.5-2.8c-2.9-6.4-6.2-12.7-9.9-19c-1-1.7-3.1-2.6-5.1-2.2c-2.9,0.7-5.8,1.3-8.6,2.1
			c-1.9,0.5-3.3,2.2-3.5,4.1c-0.8,7.6-1.1,15-1,22.3c0,1.9-1,3.7-2.8,4.5c-2.3,1-4.6,2.1-6.8,3.2c-0.1,0.1-0.3,0.2-0.4,0.2
			c-2.1,1.3-4.4,2.5-6.5,3.8c-1.6,1-3.7,0.9-5.2-0.3c-5.6-4.3-11.4-8.4-17.6-12.2c-1.8-1.1-4-0.9-5.6,0.4c-2.2,1.9-4.4,3.8-6.5,5.7
			c-1.5,1.4-1.9,3.6-1.2,5.5c2.8,7,5.9,13.7,9.4,20.1c0.9,1.7,0.8,3.8-0.4,5.3c-1.6,2-3.2,4-4.6,6.2c-1.3,2.2-2.8,4.3-4.1,6.5
			c-1,1.7-2.9,2.5-4.9,2.2c-6.9-1.2-14-2.1-21.3-2.6c-2-0.1-3.9,1.1-4.7,3c-1.1,2.7-2.2,5.5-3.2,8.3c-0.6,1.8-0.1,3.9,1.4,5.2
			c5.8,5,11.7,9.4,17.8,13.5c1.6,1.1,2.4,2.9,2.1,4.8l-1.2,7.4C322.3,272.6,322.2,272.7,322.2,272.9z M364.4,252.3
			c5.4-10.6,13.6-19.7,23.2-26.7c9.7-6.9,21.1-11.2,32.8-12.8c11.8-1.8,24-0.1,35.1,3.9c11.2,3.9,21.3,10.9,29.3,19.8
			c8.2,8.7,13.8,19.6,16.7,31c3.1,11.4,3.2,23.8,0.4,35.3c-2.7,11.5-8.1,22.5-16.1,31.4c-7.8,9-17.7,16.2-28.8,20.4
			c-11,4.2-23.1,6.2-35,4.6c-11.8-1.4-23.2-5.4-33.1-12.1c-9.7-6.8-18.1-15.7-23.7-26.2c-5.5-10.5-8.6-22.2-8.8-34.2
			C356.3,274.7,359.1,262.9,364.4,252.3z"/>
		<path display="inline" fill="#0074AD" d="M499.7,459.6l-0.4,5.7c-0.1,1.5-1.1,2.8-2.6,3.3c-5.2,1.6-10.3,3.6-15.5,5.9
			c-1.5,0.7-2.4,2.3-2.3,3.9c0.2,2.2,0.6,4.4,0.9,6.6c0.2,1.5,1.3,2.8,2.8,3.1c5.7,1.3,11.4,2.2,17,2.8c1.4,0.1,2.7,1.1,3.1,2.5
			c0.6,1.9,1.4,3.9,2,5.8c0.7,1.9,1.6,3.7,2.4,5.5c0.6,1.3,0.3,2.9-0.7,4c-3.9,3.9-7.5,8-11,12.5c-1.1,1.3-1.1,3.2-0.2,4.6
			c1.2,1.8,2.5,3.6,3.8,5.4c0.9,1.2,2.5,1.8,3.9,1.4c5.7-1.5,11.2-3.3,16.4-5.4c1.3-0.5,2.8-0.3,3.8,0.7c1.4,1.4,2.9,2.7,4.4,4.1
			c0.1,0.1,0.2,0.2,0.3,0.3c1.4,1.2,2.9,2.4,4.4,3.5c1.2,1,1.7,2.6,1.3,4.1c-1.6,5.2-2.9,10.5-3.9,16c-0.3,1.6,0.5,3.3,1.9,4.1
			c1.9,1.1,4,2,6,3c1.4,0.7,3,0.4,4.2-0.6c4.3-3.9,8.4-8.2,12-12.5c0.9-1.1,2.3-1.5,3.7-1.1c2,0.6,4,1,6,1.6
			c1.9,0.5,3.8,0.8,5.7,1.1c1.6,0.2,2.8,1.5,3.1,3c1,5.4,2.3,10.7,4,16c0.5,1.5,1.8,2.7,3.4,2.7c2.2,0.1,4.5,0,6.8,0
			c1.6-0.1,3-1.1,3.5-2.5c2-5.4,3.6-11,4.8-16.5c0.3-1.4,1.4-2.5,2.8-2.7c2-0.3,4-0.9,6-1.4c1.9-0.4,3.8-1,5.6-1.6
			c1.5-0.5,3.1,0,4,1.2c3.5,4.4,7.1,8.5,11.1,12.5c1.1,1.1,2.7,1.4,4.1,0.7c2.1-1,4.1-2.1,6.1-3.2c1.3-0.8,2.1-2.3,1.9-3.9
			c-0.8-5.7-1.9-11.4-3.4-16.9c-0.4-1.4,0.1-2.8,1.2-3.7c1.6-1.2,3.2-2.6,4.7-4c1.5-1.2,2.9-2.6,4.2-4c1.1-1.2,2.8-1.5,4.2-0.8
			c5.1,2.3,10.2,4.2,15.6,5.9c1.4,0.5,3.1,0,4-1.2c1.4-1.8,2.7-3.8,3.9-5.7c0.8-1.3,0.8-3-0.1-4.3c-3.3-4.7-7-9.2-10.9-13.4
			c-1-1-1.3-2.6-0.7-3.8c0.9-1.9,1.6-3.8,2.3-5.7c0.8-1.8,1.3-3.7,1.9-5.6c0.4-1.5,1.7-2.5,3.3-2.6c5.6-0.4,11.1-1,16.6-2
			c1.5-0.3,2.7-1.5,2.9-3c0.4-2.3,0.7-4.5,0.8-6.8c0.1-1.6-0.7-3-2.1-3.8c-5.2-2.6-10.4-4.9-15.8-6.8c-1.4-0.5-2.4-1.7-2.4-3.2
			c-0.1-2-0.2-4-0.6-6c-0.3-2-0.5-4-0.9-5.9c-0.3-1.5,0.4-3,1.7-3.8c4.6-2.8,9.3-6,13.6-9.4c1.3-1,1.8-2.7,1.2-4.3
			c-0.7-2.1-1.5-4.3-2.4-6.3c-0.6-1.4-2.1-2.3-3.6-2.3c-5.8,0.1-11.5,0.5-17.2,1.3c-1.5,0.2-3-0.5-3.7-1.8c-1-1.7-2-3.4-3.3-5
			c-1.2-1.6-2.3-3.3-3.6-4.8c-1-1.2-1-2.8-0.3-4.1c2.8-4.7,5.4-9.6,7.7-14.6c0.7-1.5,0.3-3.3-0.9-4.4c-1.6-1.5-3.3-3.1-5-4.5
			c-1.2-1-2.9-1.1-4.2-0.4c-5.1,2.8-10,5.8-14.7,9.2c-1.2,0.9-2.8,1-4,0.2c-1.7-1.1-3.4-2.1-5.3-2.9c-1.8-0.9-3.6-1.8-5.4-2.6
			c-1.4-0.6-2.2-2-2.1-3.5c0.3-5.4,0.3-11,0-16.5c-0.1-1.7-1.3-3.1-2.9-3.5c-2.1-0.6-4.2-1.2-6.3-1.6c-1.6-0.3-3.2,0.3-4.1,1.6
			c-3.3,4.9-6.1,9.7-8.7,14.9c-0.7,1.4-2.1,2.2-3.6,2.1c-2-0.1-3.9-0.3-5.9-0.2c-2,0.1-4,0.1-6,0.2c-1.5,0.1-2.9-0.8-3.5-2.1
			c-2.3-5-4.8-9.9-7.7-14.7c-0.8-1.4-2.4-2-3.9-1.7c-2.2,0.5-4.5,1-6.7,1.6c-1.5,0.4-2.5,1.7-2.7,3.2c-0.6,5.9-0.9,11.6-0.8,17.3
			c0,1.5-0.8,2.9-2.2,3.5c-1.8,0.8-3.5,1.6-5.2,2.5c-0.1,0.1-0.2,0.1-0.3,0.2c-1.7,1-3.4,1.9-5,2.9c-1.3,0.8-2.9,0.7-4.1-0.3
			c-4.3-3.3-8.9-6.5-13.7-9.5c-1.4-0.8-3.1-0.7-4.4,0.3c-1.7,1.5-3.4,2.9-5,4.4c-1.1,1.1-1.5,2.8-0.9,4.2c2.2,5.5,4.6,10.6,7.3,15.6
			c0.7,1.3,0.6,2.9-0.3,4.1c-1.2,1.6-2.5,3.1-3.6,4.8c-1,1.7-2.2,3.4-3.2,5.1c-0.8,1.3-2.3,1.9-3.8,1.7c-5.4-0.9-10.9-1.6-16.5-2
			c-1.6-0.1-3,0.8-3.6,2.3c-0.9,2.1-1.7,4.3-2.4,6.4c-0.5,1.4,0,3,1.1,4c4.5,3.8,9.1,7.3,13.8,10.4c1.2,0.8,1.9,2.3,1.6,3.7l-1,5.8
			C499.7,459.4,499.7,459.5,499.7,459.6z M532.4,443.6c4.2-8.2,10.5-15.3,17.9-20.7c7.5-5.3,16.3-8.7,25.4-9.9
			c9.2-1.4,18.6-0.1,27.2,3c8.7,3,16.5,8.5,22.7,15.3c6.3,6.8,10.7,15.2,13,24c2.4,8.9,2.5,18.5,0.3,27.4
			c-2.1,8.9-6.3,17.4-12.4,24.3c-6,7-13.7,12.6-22.3,15.8c-8.5,3.3-17.9,4.8-27.1,3.6c-9.1-1.1-18-4.2-25.7-9.4
			c-7.5-5.3-14.1-12.2-18.4-20.3c-4.3-8.1-6.7-17.2-6.9-26.5C526.1,461,528.3,451.8,532.4,443.6z"/>
		<path display="inline" fill="#0074AD" d="M577.4,244.3l-0.5,7.9c-0.1,2.1-1.6,4-3.6,4.6c-7.2,2.3-14.4,5-21.5,8.1
			c-2.1,0.9-3.4,3.1-3.1,5.4c0.3,3.1,0.8,6.1,1.2,9.2c0.3,2.1,1.9,3.8,3.9,4.3c7.9,1.8,15.9,3.1,23.7,3.9c2,0.2,3.7,1.5,4.3,3.4
			c0.9,2.7,1.9,5.4,2.8,8.1c1,2.6,2.2,5.1,3.4,7.6c0.9,1.9,0.4,4.1-1,5.5c-5.4,5.4-10.4,11.2-15.3,17.3c-1.5,1.8-1.5,4.4-0.2,6.4
			c1.7,2.6,3.5,5,5.3,7.5c1.3,1.7,3.4,2.5,5.5,2c7.9-2.1,15.5-4.6,22.8-7.6c1.8-0.7,3.9-0.4,5.3,1c2,1.9,4.1,3.8,6.1,5.7
			c0.1,0.1,0.2,0.2,0.4,0.3c2,1.7,4.1,3.3,6.2,4.9c1.7,1.3,2.4,3.6,1.8,5.7c-2.2,7.2-4,14.6-5.5,22.3c-0.4,2.3,0.7,4.6,2.7,5.7
			c2.7,1.5,5.5,2.8,8.3,4.2c1.9,0.9,4.2,0.6,5.8-0.8c6-5.5,11.6-11.3,16.7-17.3c1.3-1.5,3.2-2.1,5.1-1.6c2.7,0.8,5.6,1.4,8.3,2.3
			c2.6,0.7,5.2,1.1,7.9,1.5c2.2,0.3,3.9,2,4.3,4.2c1.4,7.6,3.2,14.8,5.5,22.3c0.6,2.1,2.6,3.7,4.8,3.8c3.1,0.1,6.3,0.1,9.4-0.1
			c2.2-0.1,4.1-1.5,4.9-3.5c2.8-7.5,5-15.3,6.7-23c0.4-1.9,1.9-3.4,3.9-3.8c2.8-0.5,5.6-1.2,8.3-1.9c2.7-0.5,5.3-1.4,7.8-2.3
			c2-0.7,4.2,0,5.6,1.7c4.8,6.1,9.9,11.8,15.4,17.4c1.5,1.5,3.8,1.9,5.7,1c2.9-1.4,5.7-2.9,8.5-4.5c1.9-1.1,2.9-3.2,2.6-5.4
			c-1-7.9-2.7-15.9-4.8-23.5c-0.5-1.9,0.1-4,1.7-5.2c2.3-1.7,4.4-3.6,6.5-5.5c2.1-1.7,4-3.6,5.8-5.6c1.5-1.6,3.9-2,5.9-1.1
			c7,3.2,14.2,5.9,21.6,8.2c2,0.6,4.2,0,5.5-1.7c1.9-2.6,3.7-5.2,5.4-7.9c1.2-1.8,1.1-4.2-0.1-6c-4.6-6.5-9.7-12.8-15.1-18.6
			c-1.3-1.4-1.7-3.5-0.9-5.3c1.2-2.6,2.2-5.3,3.2-7.9c1.1-2.5,1.9-5.1,2.6-7.8c0.6-2.1,2.4-3.5,4.5-3.6c7.7-0.5,15.4-1.4,23-2.8
			c2.1-0.4,3.7-2.1,4.1-4.2c0.5-3.1,0.9-6.3,1.2-9.5c0.2-2.2-1-4.2-3-5.2c-7.2-3.7-14.4-6.8-22-9.5c-1.9-0.7-3.3-2.4-3.4-4.5
			c-0.1-2.8-0.3-5.6-0.8-8.3c-0.4-2.7-0.7-5.5-1.3-8.2c-0.4-2.1,0.5-4.1,2.3-5.2c6.4-3.9,12.9-8.3,18.9-13c1.8-1.4,2.5-3.8,1.7-6
			c-1-3-2-5.9-3.3-8.8c-0.8-2-2.8-3.2-5-3.2c-8.1,0.1-16,0.7-23.9,1.8c-2.1,0.3-4.1-0.6-5.2-2.4c-1.4-2.4-2.8-4.8-4.5-6.9
			c-1.6-2.3-3.2-4.5-5-6.7c-1.3-1.6-1.4-3.9-0.4-5.7c3.9-6.5,7.6-13.3,10.7-20.3c1-2.1,0.4-4.5-1.2-6.1c-2.3-2.1-4.5-4.3-7-6.2
			c-1.6-1.3-4-1.5-5.9-0.5c-7.1,3.9-13.9,8-20.3,12.7c-1.7,1.2-3.9,1.3-5.6,0.2c-2.4-1.5-4.7-2.9-7.3-4.1c-2.5-1.3-5-2.5-7.5-3.6
			c-1.9-0.8-3.1-2.8-3-4.8c0.4-7.5,0.5-15.3,0-22.9c-0.1-2.3-1.7-4.2-4-4.9c-2.9-0.8-5.8-1.7-8.8-2.3c-2.2-0.5-4.4,0.4-5.7,2.3
			c-4.5,6.8-8.5,13.5-12.1,20.7c-0.9,1.9-2.9,3.1-5,2.9c-2.7-0.2-5.5-0.4-8.2-0.3c-2.8,0.2-5.6,0.1-8.3,0.3c-2.1,0.1-4-1.1-4.9-3
			c-3.1-6.9-6.7-13.7-10.7-20.4c-1.1-1.9-3.3-2.8-5.5-2.3c-3.1,0.7-6.2,1.4-9.3,2.3c-2,0.6-3.5,2.4-3.7,4.5
			c-0.8,8.1-1.2,16.1-1.1,24c0,2.1-1.1,4-3,4.9c-2.4,1.1-4.9,2.2-7.3,3.5c-0.2,0.1-0.3,0.2-0.4,0.3c-2.3,1.4-4.7,2.7-7,4.1
			c-1.8,1.1-4,0.9-5.6-0.3c-6-4.6-12.3-9-19-13.1c-1.9-1.2-4.4-1-6,0.5c-2.4,2-4.7,4-7,6.2c-1.6,1.5-2.1,3.8-1.3,5.9
			c3,7.6,6.3,14.7,10.1,21.6c1,1.8,0.9,4.1-0.4,5.7c-1.7,2.2-3.5,4.4-5,6.7c-1.4,2.4-3,4.7-4.4,7c-1.1,1.8-3.2,2.7-5.2,2.3
			c-7.4-1.3-15.1-2.2-22.9-2.8c-2.2-0.2-4.2,1.1-5,3.2c-1.2,3-2.3,5.9-3.4,8.9c-0.7,2-0.1,4.2,1.5,5.6c6.2,5.3,12.6,10.2,19.2,14.5
			c1.7,1.1,2.6,3.1,2.3,5.2l-1.3,8C577.4,243.9,577.4,244.1,577.4,244.3z M622.8,222c5.8-11.4,14.6-21.2,24.9-28.7
			c10.5-7.4,22.7-12,35.3-13.8c12.7-1.9,25.8-0.1,37.8,4.2c12.1,4.2,22.9,11.8,31.5,21.3c8.8,9.4,14.8,21.1,18,33.4
			c3.3,12.3,3.4,25.6,0.4,38c-2.9,12.4-8.7,24.2-17.3,33.8c-8.4,9.7-19,17.5-31,21.9c-11.8,4.5-24.9,6.6-37.7,5
			c-12.7-1.5-25-5.8-35.6-13c-10.5-7.3-19.5-16.9-25.5-28.2c-6-11.3-9.3-23.9-9.5-36.8C614,246.1,617,233.5,622.8,222z"/>
		<g display="inline">
			<path fill="#0074AD" d="M193.7,526.6H207v47.5h23.3v11.1h-36.6L193.7,526.6L193.7,526.6z"/>
			<path fill="#0074AD" d="M273.1,560.4h-21.6v13.9h24.1v10.9h-37.4v-58.6h36.2v10.9h-22.9v12.2h21.6L273.1,560.4L273.1,560.4z"/>
			<path fill="#0074AD" d="M298.3,570.1l-4.2,15.1h-13.7l17.9-58.6h17.4l18.2,58.6h-14.3l-4.5-15.1H298.3z M313.2,560.2l-3.7-12.4
				c-1-3.5-2.1-7.8-3-11.3h-0.2c-0.9,3.5-1.7,7.9-2.7,11.3l-3.5,12.4H313.2z"/>
			<path fill="#0074AD" d="M341.7,527.3c4.3-0.7,10.6-1.2,17.7-1.2c8.7,0,14.8,1.3,19,4.6c3.5,2.8,5.4,6.9,5.4,12.3
				c0,7.5-5.3,12.6-10.4,14.4v0.3c4.1,1.7,6.4,5.6,7.8,11c1.8,6.6,3.7,14.3,4.8,16.5h-13.6c-1-1.7-2.3-6.4-4.1-13.7
				c-1.6-7.3-4.1-9.3-9.5-9.4h-4v23.1h-13.1L341.7,527.3L341.7,527.3z M354.9,552.6h5.2c6.6,0,10.5-3.3,10.5-8.4
				c0-5.4-3.7-8.1-9.7-8.2c-3.2,0-5,0.3-6,0.4V552.6z"/>
			<path fill="#0074AD" d="M393.3,585.2v-58.6h15.5l12.2,21.5c3.5,6.2,7,13.5,9.6,20.1h0.3c-0.9-7.7-1.1-15.7-1.1-24.4v-17.1H442
				v58.5h-13.9l-12.5-22.6c-3.5-6.3-7.3-13.8-10.2-20.7l-0.3,0.1c0.3,7.7,0.5,16,0.5,25.6v17.6H393.3z"/>
			<path fill="#0074AD" d="M452,578.2c0-4.7,3.2-8.1,7.8-8.1s7.7,3.3,7.7,8.1c0,4.6-3.1,8-7.8,8C455.2,586.2,452,582.8,452,578.2z"
				/>
			<path fill="#0074AD" d="M351.3,667.2c-0.3-7-0.5-15.6-0.5-24.1h-0.3c-1.8,7.5-4.3,15.8-6.5,22.7l-7.1,22.9h-10.4l-6.3-22.7
				c-1.9-6.9-3.9-15.2-5.3-22.9h-0.2c-0.3,7.9-0.6,17-1,24.3l-1,22.3h-12.3l3.7-58.6h17.7l5.7,19.6c1.8,6.8,3.7,14.1,5,21h0.3
				c1.7-6.8,3.7-14.5,5.6-21.1l6.3-19.5H362l3.2,58.6h-13L351.3,667.2z"/>
			<path fill="#0074AD" d="M388.7,674.5l-4.2,15.1h-13.7l17.9-58.6h17.4l18.2,58.6H410l-4.5-15.1H388.7z M403.6,664.6l-3.6-12.4
				c-1-3.5-2.1-7.8-3-11.3h-0.2c-0.9,3.5-1.7,7.9-2.7,11.3l-3.5,12.4H403.6z"/>
			<path fill="#0074AD" d="M432.2,631h13.1v25.9h0.3c1.3-2.3,2.7-4.4,4-6.4l13.3-19.5h16.3l-19.4,25l20.4,33.7h-15.5l-14.4-25.3
				l-5,6.2v19.1h-13.1L432.2,631L432.2,631z"/>
			<path fill="#0074AD" d="M520.5,664.8h-21.6v13.9H523v10.9h-37.4V631h36.2v10.9h-22.9v12.2h21.6V664.8z"/>
			<path fill="#0074AD" d="M529.9,682.6c0-4.7,3.2-8.1,7.8-8.1s7.7,3.3,7.7,8.1c0,4.6-3.1,8-7.8,8
				C533.2,690.6,529.9,687.2,529.9,682.6z"/>
			<path fill="#0074AD" d="M410.2,780.3c3.6,1.8,9,3.7,14.7,3.7c6.1,0,9.3-2.5,9.3-6.4c0-3.7-2.8-5.7-9.8-8.3
				c-9.7-3.4-16.1-8.8-16.1-17.3c0-10,8.4-17.7,22.2-17.7c6.6,0,11.5,1.4,15,3l-3,10.7c-2.3-1.1-6.5-2.8-12.3-2.8
				c-5.7,0-8.5,2.6-8.5,5.7c0,3.7,3.3,5.4,10.9,8.3c10.4,3.8,15.2,9.2,15.2,17.5c0,9.8-7.6,18.2-23.7,18.2c-6.7,0-13.3-1.7-16.6-3.6
				L410.2,780.3z"/>
			<path fill="#0074AD" d="M470,735.4v22.5h21.8v-22.5H505V794h-13.2v-24.5H470V794h-13.3v-58.6H470z"/>
			<path fill="#0074AD" d="M530.3,778.9l-4.2,15.1h-13.7l17.9-58.6h17.4l18.2,58.6h-14.3l-4.5-15.1H530.3z M545.2,769l-3.7-12.4
				c-1-3.5-2.1-7.8-3-11.3h-0.2c-0.9,3.5-1.7,7.9-2.7,11.3l-3.5,12.4H545.2z"/>
			<path fill="#0074AD" d="M573.7,736.1c4.3-0.7,10.6-1.2,17.7-1.2c8.7,0,14.8,1.3,19,4.6c3.5,2.8,5.4,6.9,5.4,12.3
				c0,7.5-5.3,12.6-10.4,14.4v0.3c4.1,1.7,6.4,5.6,7.8,11c1.8,6.6,3.7,14.3,4.8,16.5h-13.6c-1-1.7-2.3-6.4-4.1-13.7
				c-1.6-7.3-4.1-9.3-9.5-9.4h-4V794h-13.1L573.7,736.1L573.7,736.1z M586.9,761.4h5.2c6.6,0,10.5-3.3,10.5-8.4
				c0-5.4-3.7-8.1-9.7-8.2c-3.2,0-5,0.3-6,0.4V761.4z"/>
			<path fill="#0074AD" d="M660.2,769.2h-21.6v13.9h24.1V794h-37.4v-58.6h36.2v10.8h-22.9v12.2h21.6L660.2,769.2L660.2,769.2z"/>
			<path fill="#0074AD" d="M669.7,787c0-4.7,3.2-8.1,7.8-8.1s7.7,3.3,7.7,8.1c0,4.6-3.1,8-7.8,8C672.9,795,669.7,791.6,669.7,787z"
				/>
		</g>
	</g>
</g>
</svg>
